<svg width="30" height="30" viewBox="0 0 30 30" fill="none" xmlns="http://www.w3.org/2000/svg">
<path opacity="0.4" fill-rule="evenodd" clip-rule="evenodd" d="M22.1707 7.55758C24.3049 9.20485 26.122 11.6182 27.4268 14.6364C27.5244 14.8655 27.5244 15.1333 27.4268 15.3515C24.8171 21.3879 20.1707 25 15 25H14.9878C9.82927 25 5.18293 21.3879 2.57317 15.3515C2.47561 15.1333 2.47561 14.8655 2.57317 14.6364C5.18293 8.59879 9.82927 5 14.9878 5H15C17.5854 5 20.0366 5.89697 22.1707 7.55758ZM10.122 15C10.122 17.6667 12.3049 19.8364 15 19.8364C17.6829 19.8364 19.8659 17.6667 19.8659 15C19.8659 12.3212 17.6829 10.1515 15 10.1515C12.3049 10.1515 10.122 12.3212 10.122 15Z" fill="#127682"/>
<path d="M18.0385 14.9961C18.0385 16.6567 16.6726 18.0143 15.0019 18.0143C13.319 18.0143 11.9531 16.6567 11.9531 14.9961C11.9531 14.7901 11.9775 14.5973 12.0141 14.4034H12.0751C13.4287 14.4034 14.5263 13.3367 14.5751 12.0022C14.7092 11.9792 14.8556 11.9658 15.0019 11.9658C16.6726 11.9658 18.0385 13.3234 18.0385 14.9961Z" fill="#127682"/>
</svg>
