<svg width="50" height="50" viewBox="0 0 50 50" fill="none" xmlns="http://www.w3.org/2000/svg">
<path opacity="0.4" d="M33.7291 4.16663H16.2708C8.68746 4.16663 4.16663 8.68746 4.16663 16.2708V33.7083C4.16663 41.3125 8.68746 45.8333 16.2708 45.8333H33.7083C41.2916 45.8333 45.8125 41.3125 45.8125 33.7291V16.2708C45.8333 8.68746 41.3125 4.16663 33.7291 4.16663Z" fill="#127682"/>
<path d="M32.2917 21.1042C34.4548 21.1042 36.2083 19.3507 36.2083 17.1875C36.2083 15.0244 34.4548 13.2709 32.2917 13.2709C30.1286 13.2709 28.375 15.0244 28.375 17.1875C28.375 19.3507 30.1286 21.1042 32.2917 21.1042Z" fill="#127682"/>
<path d="M17.7083 21.1042C19.8714 21.1042 21.625 19.3507 21.625 17.1875C21.625 15.0244 19.8714 13.2709 17.7083 13.2709C15.5452 13.2709 13.7916 15.0244 13.7916 17.1875C13.7916 19.3507 15.5452 21.1042 17.7083 21.1042Z" fill="#127682"/>
<path d="M32.5 26.9166H17.5C16.0416 26.9166 14.8541 28.1041 14.8541 29.5833C14.8541 35.1875 19.4166 39.75 25.0208 39.75C30.625 39.75 35.1875 35.1875 35.1875 29.5833C35.1666 28.125 33.9583 26.9166 32.5 26.9166Z" fill="#127682"/>
</svg>
