<svg width="60" height="60" viewBox="0 0 60 60" fill="none" xmlns="http://www.w3.org/2000/svg">
<circle cx="30" cy="30" r="30" fill="#127682" fill-opacity="0.1"/>
<path fill-rule="evenodd" clip-rule="evenodd" d="M38.2383 32.3999L38.2383 40.2761C38.2383 40.7936 37.8183 41.2136 37.3008 41.2136C36.7833 41.2136 36.3633 40.7936 36.3633 40.2761L36.3633 32.3999C36.3633 31.8824 36.7833 31.4624 37.3008 31.4624C37.8183 31.4624 38.2383 31.8824 38.2383 32.3999Z" fill="#127682"/>
<path fill-rule="evenodd" clip-rule="evenodd" d="M26.125 21.0112L26.125 28.8862C26.125 29.4037 25.705 29.8237 25.1875 29.8237C24.67 29.8237 24.25 29.4037 24.25 28.8862L24.25 21.0112C24.25 20.4937 24.67 20.0737 25.1875 20.0737C25.705 20.0737 26.125 20.4937 26.125 21.0112Z" fill="#127682"/>
<mask id="mask0_15_1378" style="mask-type:alpha" maskUnits="userSpaceOnUse" x="21" y="33" width="8" height="9">
<path fill-rule="evenodd" clip-rule="evenodd" d="M21.25 41.25L21.25 33.4678L28.9895 33.4677L28.9895 41.25L21.25 41.25Z" fill="white"/>
</mask>
<g mask="url(#mask0_15_1378)">
<path fill-rule="evenodd" clip-rule="evenodd" d="M23.125 37.3589C23.125 38.4702 24.02 39.3752 25.1212 39.3752C26.2212 39.3752 27.115 38.4702 27.115 37.3589C27.115 36.2464 26.2212 35.3427 25.1212 35.3427C24.02 35.3427 23.125 36.2464 23.125 37.3589ZM28.99 37.359C28.99 39.504 27.255 41.2502 25.1212 41.2502C22.9875 41.2502 21.25 39.504 21.25 37.359C21.25 35.2127 22.9875 33.4677 25.1212 33.4677C27.255 33.4677 28.99 35.2127 28.99 37.359Z" fill="#127682"/>
</g>
<path fill-rule="evenodd" clip-rule="evenodd" d="M35.2578 23.2655C35.2578 24.378 36.1528 25.283 37.2528 25.283C38.3541 25.283 39.2478 24.378 39.2478 23.2655C39.2478 22.1542 38.3541 21.2505 37.2528 21.2505C36.1528 21.2505 35.2578 22.1542 35.2578 23.2655ZM41.1228 23.2655C41.1228 25.4117 39.3866 27.158 37.2528 27.158C35.1191 27.158 33.3828 25.4117 33.3828 23.2655C33.3828 21.1205 35.1191 19.3755 37.2528 19.3755C39.3866 19.3755 41.1228 21.1205 41.1228 23.2655Z" fill="#127682"/>
</svg>
