<svg width="568" height="568" viewBox="0 0 568 568" fill="none" xmlns="http://www.w3.org/2000/svg">
<path d="M567.505 267.887C570.439 317.442 560.285 366.899 538.058 411.304C515.832 455.709 482.313 493.506 440.857 520.909C399.401 548.313 351.463 564.363 301.841 567.451C252.22 570.54 202.657 560.559 158.113 538.508L233.755 386.171C251.573 394.992 271.398 398.984 291.246 397.749C311.095 396.513 330.27 390.093 346.853 379.132C363.435 368.17 376.843 353.052 385.733 335.29C394.624 317.528 398.686 297.745 397.512 277.923L567.505 267.887Z" fill="url(#paint0_linear_15_659)"/>
<path d="M139.986 39.3817C181.93 14.6413 229.514 1.10334 278.18 0.0646362C326.847 -0.974064 374.964 10.5213 417.922 33.4496C460.88 56.3778 497.24 89.9706 523.519 131.01C549.797 172.049 565.113 219.159 568 267.827L397.742 277.957C396.587 258.49 390.461 239.646 379.949 223.231C369.438 206.815 354.894 193.378 337.711 184.207C320.527 175.035 301.281 170.437 281.814 170.853C262.348 171.268 243.314 176.683 226.536 186.579L139.986 39.3817Z" fill="url(#paint1_linear_15_659)"/>
<path d="M290.702 298.078L250.888 239.42L246.139 232.43L242.51 227.05L238.127 230.28L239.164 231.84V231.853L245.196 240.747L250.051 247.896L289.371 305.829L293.754 302.586L290.702 298.078Z" fill="#202A4C"/>
<path d="M311.452 274.725C311.466 269.106 310.148 263.569 307.617 258.608C305.086 253.647 301.419 249.414 296.941 246.284C292.464 243.155 287.315 241.226 281.951 240.67C276.588 240.113 271.175 240.945 266.194 243.093L303.098 297.5C308.485 291.245 311.461 283.132 311.452 274.725Z" fill="#205EFF"/>
<path d="M317.968 300.891L317.414 301.787L317.968 300.891Z" fill="#202A4C"/>
<path d="M314.822 305.436L314.539 305.804L314.822 305.436Z" fill="#202A4C"/>
<path d="M316.377 303.323L316.035 303.814L316.377 303.323Z" fill="#202A4C"/>
<path d="M319.641 297.942C319.335 298.532 319.017 299.122 318.687 299.711C319.017 299.122 319.335 298.532 319.641 297.942Z" fill="#202A4C"/>
<path d="M306.291 302.561C307.092 301.701 307.846 300.817 308.553 299.896C307.835 300.817 307.069 301.701 306.291 302.561Z" fill="#202A4C"/>
<path d="M313.232 307.328L312.925 307.684L313.232 307.328Z" fill="#202A4C"/>
<path d="M311.582 295.399C311.841 294.957 312.088 294.515 312.324 294.06C312.088 294.515 311.841 294.957 311.582 295.399Z" fill="#202A4C"/>
<path d="M309.072 299.208C309.614 298.471 310.132 297.733 310.615 296.972C310.132 297.733 309.614 298.483 309.072 299.208Z" fill="#202A4C"/>
<path d="M311.57 309.183L311.193 309.576L311.57 309.183Z" fill="#202A4C"/>
<path d="M306.294 302.561L306.114 302.745L306.294 302.561Z" fill="#00CDC0"/>
<path d="M312.324 294.06C312.772 293.213 313.196 292.365 313.585 291.481C313.208 292.353 312.772 293.213 312.324 294.06Z" fill="#00CDC0"/>
<path d="M310.604 296.972C310.946 296.456 311.264 295.928 311.57 295.399C311.276 295.928 310.958 296.456 310.604 296.972Z" fill="#00CDC0"/>
<path d="M308.554 299.957C308.731 299.736 308.907 299.503 309.072 299.269C308.907 299.441 308.731 299.662 308.554 299.957Z" fill="#00CDC0"/>
<path d="M314.539 305.804C314.115 306.333 313.679 306.849 313.231 307.365C313.679 306.849 314.139 306.333 314.539 305.804Z" fill="#00CDC0"/>
<path d="M317.415 301.787C317.085 302.303 316.731 302.819 316.378 303.323C316.731 302.819 317.085 302.303 317.415 301.787Z" fill="#00CDC0"/>
<path d="M316.036 303.814C315.647 304.367 315.234 304.908 314.857 305.436C315.234 304.871 315.647 304.367 316.036 303.814Z" fill="#00CDC0"/>
<path d="M319.843 297.574C319.843 297.696 319.712 297.819 319.641 297.942C319.712 297.819 319.784 297.696 319.843 297.574Z" fill="#00CDC0"/>
<path d="M312.961 307.721C312.513 308.212 312.065 308.703 311.606 309.183C312.03 308.703 312.489 308.212 312.961 307.721Z" fill="#00CDC0"/>
<path d="M318.687 299.711C318.451 300.104 318.216 300.498 317.968 300.94C318.216 300.498 318.451 300.104 318.687 299.711Z" fill="#00CDC0"/>
<path d="M310.604 310.202C310.816 310.006 311.005 309.785 311.217 309.576C310.73 310.067 310.235 310.546 309.732 311.013C310.003 310.743 310.298 310.485 310.604 310.202Z" fill="#00CDC0"/>
<path d="M309.579 311.136L309.708 311.013C310.211 310.546 310.706 310.067 311.193 309.576L311.57 309.183C312.03 308.704 312.477 308.212 312.925 307.721L313.231 307.365C313.679 306.849 314.115 306.333 314.539 305.804L314.822 305.436C315.234 304.908 315.647 304.367 316 303.814L316.342 303.323C316.696 302.819 317.049 302.303 317.379 301.787L317.933 300.891C318.18 300.498 318.416 300.105 318.651 299.662C318.981 299.073 319.3 298.483 319.606 297.893C319.677 297.771 319.747 297.648 319.806 297.525C320.207 296.751 320.572 295.952 320.985 295.166C321.232 294.626 321.456 294.073 321.668 293.52C321.762 293.299 321.856 293.102 321.939 292.881C325.484 283.751 326.286 273.714 324.239 264.098C322.192 254.482 317.393 245.741 310.477 239.031C303.561 232.321 294.853 227.958 285.506 226.521C276.16 225.083 266.615 226.638 258.135 230.981L262.942 238.056C270.087 234.715 278.04 233.726 285.738 235.224C293.436 236.721 300.512 240.632 306.02 246.435C311.529 252.238 315.207 259.656 316.563 267.697C317.919 275.737 316.888 284.018 313.608 291.432C313.22 292.316 312.795 293.164 312.348 294.012C312.112 294.466 311.865 294.908 311.605 295.35C311.346 295.793 310.981 296.407 310.639 296.923C310.156 297.685 309.638 298.422 309.096 299.159C308.931 299.392 308.754 299.625 308.577 299.847C307.87 300.768 307.116 301.652 306.315 302.512L306.138 302.697C305.714 303.151 305.278 303.606 304.818 304.036L278.79 265.684L274.407 268.915L300.671 307.623L305.384 314.612L328.702 349.008L333.097 345.765L309.579 311.136Z" fill="#202A4C"/>
<path d="M282.183 323.297H282.843C284.425 323.152 285.998 322.919 287.556 322.597L288.004 322.511L289.501 322.167L289.972 322.044C290.867 321.811 291.763 321.541 292.647 321.258L293.165 321.086L294.343 320.644L295.215 320.312L296.311 319.858L297.419 319.366L298.173 319.022C299.811 318.24 301.405 317.358 302.945 316.381L298.232 309.367C296.666 310.332 295.036 311.178 293.354 311.897C288.495 313.993 283.278 315.033 278.02 314.955C272.763 314.877 267.576 313.682 262.777 311.443L262.412 311.271C261.646 310.902 260.88 310.497 260.126 310.043L259.596 309.723C259.03 309.392 258.476 309.048 257.922 308.679L257.215 308.2C256.591 307.758 255.966 307.303 255.365 306.824L254.6 306.198C254.105 305.78 253.61 305.35 253.127 304.895C252.868 304.674 252.632 304.441 252.384 304.207C251.89 303.716 251.395 303.212 250.912 302.697C250.676 302.426 250.417 302.168 250.181 301.898L249.992 301.677C249.639 301.272 249.297 300.854 248.967 300.448L248.791 300.227C248.461 299.81 248.143 299.38 247.824 298.999L247.648 298.741C247.353 298.323 247.059 297.893 246.776 297.513L246.552 297.156C246.293 296.763 246.057 296.37 245.81 295.928L245.503 295.387L244.949 294.38L244.525 293.569L244.172 292.832C243.983 292.464 243.806 292.083 243.642 291.702C243.594 291.572 243.539 291.445 243.477 291.321C241.384 286.408 240.254 281.108 240.154 275.732C240.154 275.45 240.154 275.18 240.154 274.897C240.154 264.975 243.694 255.407 250.087 248.056L245.244 240.919C236.943 249.775 232.204 261.607 232 273.988V273.988C232 274.148 232 274.295 232 274.455C232 274.615 232 274.75 232 274.897C232 275.044 232 275.327 232 275.536C232 275.99 232 276.433 232 276.875C232 277.317 232 277.612 232 277.968C232 278.324 232.059 278.816 232.094 279.197L232.2 280.339C232.2 280.732 232.295 281.138 232.353 281.567C232.412 281.997 232.46 282.354 232.518 282.796C232.577 283.238 232.648 283.57 232.719 283.951C232.789 284.331 232.848 284.737 232.931 285.118C233.013 285.498 233.108 285.916 233.19 286.346C233.273 286.776 233.355 287.071 233.449 287.427C233.544 287.783 233.685 288.299 233.803 288.729C233.921 289.159 233.98 289.356 234.074 289.663C234.215 290.166 234.392 290.658 234.557 291.162C234.639 291.395 234.71 291.616 234.781 291.849C234.993 292.439 235.217 293.078 235.452 293.606C235.452 293.729 235.547 293.864 235.606 293.987C235.877 294.663 236.159 295.326 236.466 295.989V296.1C237.481 298.122 238.631 300.068 239.906 301.923C240.283 302.512 240.684 303.151 241.085 303.679L241.226 303.876C241.591 304.392 241.98 304.895 242.404 305.399L242.699 305.768C243.052 306.222 243.429 306.664 243.806 307.107L244.219 307.586L244.596 308.028L245.609 309.109C249.311 312.976 253.613 316.161 258.335 318.531L258.523 318.629C259.065 318.9 259.619 319.158 260.185 319.416L260.797 319.686L262.058 320.202L262.859 320.509L263.932 320.89C264.627 321.123 265.334 321.356 266.053 321.565L266.559 321.713L267.903 322.057L268.492 322.192L269.882 322.499L270.353 322.585C271.886 322.871 273.431 323.076 274.984 323.199H275.55L276.928 323.261H277.564H278.613C279.179 323.261 279.721 323.261 280.275 323.261H280.758L282.183 323.297Z" fill="#00CDC0"/>
<path d="M339.767 415.547H336.657C336.6 415.144 336.484 414.787 336.309 414.474C336.133 414.157 335.908 413.887 335.634 413.665C335.359 413.442 335.042 413.272 334.682 413.153C334.327 413.035 333.941 412.976 333.524 412.976C332.772 412.976 332.116 413.163 331.557 413.537C330.998 413.906 330.565 414.446 330.257 415.156C329.95 415.862 329.796 416.719 329.796 417.727C329.796 418.764 329.95 419.635 330.257 420.341C330.57 421.046 331.005 421.579 331.564 421.939C332.123 422.299 332.769 422.479 333.503 422.479C333.915 422.479 334.296 422.424 334.647 422.315C335.002 422.206 335.317 422.048 335.591 421.839C335.866 421.626 336.093 421.368 336.273 421.065C336.458 420.762 336.585 420.417 336.657 420.028L339.767 420.043C339.687 420.71 339.486 421.354 339.164 421.974C338.846 422.59 338.418 423.142 337.878 423.629C337.343 424.112 336.704 424.496 335.96 424.78C335.222 425.059 334.386 425.199 333.453 425.199C332.156 425.199 330.996 424.905 329.973 424.318C328.955 423.731 328.15 422.881 327.559 421.768C326.971 420.656 326.678 419.309 326.678 417.727C326.678 416.141 326.976 414.792 327.573 413.679C328.169 412.566 328.979 411.719 330.002 411.136C331.024 410.549 332.175 410.256 333.453 410.256C334.296 410.256 335.077 410.374 335.797 410.611C336.522 410.848 337.163 411.193 337.722 411.648C338.281 412.098 338.735 412.649 339.085 413.303C339.441 413.956 339.668 414.704 339.767 415.547ZM346.405 425.213C345.302 425.213 344.347 424.979 343.543 424.51C342.742 424.036 342.124 423.378 341.689 422.536C341.253 421.688 341.035 420.705 341.035 419.588C341.035 418.461 341.253 417.476 341.689 416.634C342.124 415.786 342.742 415.128 343.543 414.659C344.347 414.186 345.302 413.949 346.405 413.949C347.508 413.949 348.46 414.186 349.26 414.659C350.065 415.128 350.685 415.786 351.121 416.634C351.556 417.476 351.774 418.461 351.774 419.588C351.774 420.705 351.556 421.688 351.121 422.536C350.685 423.378 350.065 424.036 349.26 424.51C348.46 424.979 347.508 425.213 346.405 425.213ZM346.419 422.869C346.921 422.869 347.34 422.727 347.676 422.443C348.012 422.154 348.266 421.761 348.436 421.264C348.611 420.767 348.699 420.201 348.699 419.567C348.699 418.932 348.611 418.366 348.436 417.869C348.266 417.372 348.012 416.979 347.676 416.69C347.34 416.402 346.921 416.257 346.419 416.257C345.912 416.257 345.486 416.402 345.141 416.69C344.8 416.979 344.542 417.372 344.366 417.869C344.196 418.366 344.111 418.932 344.111 419.567C344.111 420.201 344.196 420.767 344.366 421.264C344.542 421.761 344.8 422.154 345.141 422.443C345.486 422.727 345.912 422.869 346.419 422.869ZM356.327 418.693V425H353.301V414.091H356.185V416.016H356.313C356.554 415.381 356.959 414.879 357.527 414.51C358.095 414.136 358.784 413.949 359.594 413.949C360.352 413.949 361.012 414.115 361.576 414.446C362.139 414.777 362.577 415.251 362.889 415.866C363.202 416.477 363.358 417.206 363.358 418.054V425H360.333V418.594C360.337 417.926 360.167 417.405 359.821 417.031C359.476 416.652 359 416.463 358.394 416.463C357.987 416.463 357.627 416.551 357.314 416.726C357.006 416.901 356.765 417.157 356.59 417.493C356.419 417.824 356.332 418.224 356.327 418.693ZM368.328 418.693V425H365.303V414.091H368.186V416.016H368.314C368.556 415.381 368.96 414.879 369.529 414.51C370.097 414.136 370.786 413.949 371.595 413.949C372.353 413.949 373.013 414.115 373.577 414.446C374.14 414.777 374.578 415.251 374.891 415.866C375.203 416.477 375.36 417.206 375.36 418.054V425H372.334V418.594C372.339 417.926 372.168 417.405 371.823 417.031C371.477 416.652 371.001 416.463 370.395 416.463C369.988 416.463 369.628 416.551 369.316 416.726C369.008 416.901 368.766 417.157 368.591 417.493C368.421 417.824 368.333 418.224 368.328 418.693ZM382.276 425.213C381.154 425.213 380.188 424.986 379.378 424.531C378.573 424.072 377.953 423.423 377.517 422.585C377.082 421.742 376.864 420.746 376.864 419.595C376.864 418.473 377.082 417.488 377.517 416.641C377.953 415.793 378.566 415.133 379.357 414.659C380.152 414.186 381.085 413.949 382.155 413.949C382.875 413.949 383.545 414.065 384.165 414.297C384.79 414.524 385.334 414.867 385.799 415.327C386.267 415.786 386.632 416.364 386.892 417.06C387.153 417.751 387.283 418.561 387.283 419.489V420.32H378.071V418.445H384.435C384.435 418.009 384.34 417.623 384.151 417.287C383.961 416.951 383.699 416.688 383.362 416.499C383.031 416.304 382.645 416.207 382.205 416.207C381.745 416.207 381.338 416.314 380.983 416.527C380.633 416.735 380.358 417.017 380.159 417.372C379.96 417.723 379.859 418.113 379.854 418.544V420.327C379.854 420.866 379.953 421.333 380.152 421.726C380.356 422.119 380.642 422.422 381.012 422.635C381.381 422.848 381.819 422.955 382.325 422.955C382.662 422.955 382.969 422.907 383.249 422.812C383.528 422.718 383.767 422.576 383.966 422.386C384.165 422.197 384.316 421.965 384.421 421.69L387.219 421.875C387.077 422.547 386.786 423.134 386.345 423.636C385.91 424.134 385.346 424.522 384.655 424.801C383.968 425.076 383.175 425.213 382.276 425.213ZM393.746 425.213C392.629 425.213 391.668 424.976 390.863 424.503C390.063 424.025 389.447 423.362 389.016 422.514C388.59 421.667 388.377 420.691 388.377 419.588C388.377 418.471 388.592 417.491 389.023 416.648C389.459 415.8 390.077 415.14 390.877 414.666C391.677 414.188 392.629 413.949 393.732 413.949C394.684 413.949 395.517 414.122 396.232 414.467C396.947 414.813 397.513 415.298 397.93 415.923C398.346 416.548 398.576 417.282 398.618 418.125H395.763C395.683 417.58 395.47 417.143 395.124 416.811C394.783 416.475 394.336 416.307 393.782 416.307C393.313 416.307 392.903 416.435 392.553 416.69C392.207 416.941 391.938 417.308 391.743 417.791C391.549 418.274 391.452 418.859 391.452 419.545C391.452 420.241 391.547 420.833 391.736 421.321C391.93 421.809 392.203 422.18 392.553 422.436C392.903 422.692 393.313 422.82 393.782 422.82C394.127 422.82 394.438 422.749 394.712 422.607C394.992 422.464 395.221 422.259 395.401 421.989C395.586 421.714 395.707 421.385 395.763 421.001H398.618C398.571 421.835 398.344 422.569 397.937 423.203C397.534 423.833 396.978 424.325 396.268 424.68C395.557 425.036 394.717 425.213 393.746 425.213ZM405.918 414.091V416.364H399.349V414.091H405.918ZM400.84 411.477H403.866V421.648C403.866 421.927 403.908 422.145 403.993 422.301C404.079 422.453 404.197 422.559 404.349 422.621C404.505 422.682 404.685 422.713 404.888 422.713C405.03 422.713 405.172 422.701 405.314 422.678C405.456 422.649 405.565 422.628 405.641 422.614L406.117 424.865C405.965 424.912 405.752 424.967 405.478 425.028C405.203 425.095 404.869 425.135 404.476 425.149C403.747 425.178 403.108 425.08 402.559 424.858C402.014 424.635 401.59 424.29 401.287 423.821C400.984 423.352 400.835 422.76 400.84 422.045V411.477ZM414.969 425L410.807 410.455H414.166L416.574 420.561H416.695L419.351 410.455H422.227L424.877 420.582H425.004L427.412 410.455H430.771L426.61 425H423.612L420.842 415.49H420.729L417.966 425H414.969ZM431.921 425V414.091H434.946V425H431.921ZM433.44 412.685C432.991 412.685 432.605 412.536 432.283 412.237C431.966 411.934 431.807 411.572 431.807 411.151C431.807 410.734 431.966 410.376 432.283 410.078C432.605 409.775 432.991 409.624 433.44 409.624C433.89 409.624 434.274 409.775 434.591 410.078C434.913 410.376 435.074 410.734 435.074 411.151C435.074 411.572 434.913 411.934 434.591 412.237C434.274 412.536 433.89 412.685 433.44 412.685ZM442.732 414.091V416.364H436.163V414.091H442.732ZM437.654 411.477H440.68V421.648C440.68 421.927 440.722 422.145 440.808 422.301C440.893 422.453 441.011 422.559 441.163 422.621C441.319 422.682 441.499 422.713 441.703 422.713C441.845 422.713 441.987 422.701 442.129 422.678C442.271 422.649 442.38 422.628 442.455 422.614L442.931 424.865C442.78 424.912 442.567 424.967 442.292 425.028C442.017 425.095 441.684 425.135 441.291 425.149C440.561 425.178 439.922 425.08 439.373 424.858C438.828 424.635 438.405 424.29 438.102 423.821C437.799 423.352 437.649 422.76 437.654 422.045V411.477ZM447.523 418.693V425H444.498V410.455H447.438V416.016H447.566C447.812 415.372 448.21 414.867 448.759 414.503C449.308 414.134 449.997 413.949 450.826 413.949C451.583 413.949 452.244 414.115 452.807 414.446C453.375 414.773 453.816 415.244 454.128 415.859C454.446 416.47 454.602 417.202 454.597 418.054V425H451.571V418.594C451.576 417.921 451.406 417.398 451.06 417.024C450.719 416.65 450.241 416.463 449.625 416.463C449.214 416.463 448.849 416.551 448.532 416.726C448.219 416.901 447.973 417.157 447.793 417.493C447.618 417.824 447.528 418.224 447.523 418.693ZM307.223 455V440.455H312.962C314.065 440.455 315.005 440.665 315.781 441.087C316.558 441.503 317.15 442.083 317.557 442.827C317.969 443.565 318.175 444.418 318.175 445.384C318.175 446.349 317.966 447.202 317.55 447.94C317.133 448.679 316.529 449.254 315.739 449.666C314.953 450.078 314.001 450.284 312.883 450.284H309.226V447.82H312.386C312.978 447.82 313.466 447.718 313.849 447.514C314.238 447.306 314.526 447.019 314.716 446.655C314.91 446.286 315.007 445.862 315.007 445.384C315.007 444.901 314.91 444.479 314.716 444.119C314.526 443.755 314.238 443.473 313.849 443.274C313.461 443.071 312.969 442.969 312.372 442.969H310.298V455H307.223ZM324.429 455.213C323.325 455.213 322.371 454.979 321.566 454.51C320.766 454.036 320.148 453.378 319.713 452.536C319.277 451.688 319.059 450.705 319.059 449.588C319.059 448.461 319.277 447.476 319.713 446.634C320.148 445.786 320.766 445.128 321.566 444.659C322.371 444.186 323.325 443.949 324.429 443.949C325.532 443.949 326.483 444.186 327.284 444.659C328.089 445.128 328.709 445.786 329.144 446.634C329.58 447.476 329.798 448.461 329.798 449.588C329.798 450.705 329.58 451.688 329.144 452.536C328.709 453.378 328.089 454.036 327.284 454.51C326.483 454.979 325.532 455.213 324.429 455.213ZM324.443 452.869C324.945 452.869 325.364 452.727 325.7 452.443C326.036 452.154 326.289 451.761 326.46 451.264C326.635 450.767 326.723 450.201 326.723 449.567C326.723 448.932 326.635 448.366 326.46 447.869C326.289 447.372 326.036 446.979 325.7 446.69C325.364 446.402 324.945 446.257 324.443 446.257C323.936 446.257 323.51 446.402 323.164 446.69C322.823 446.979 322.565 447.372 322.39 447.869C322.22 448.366 322.135 448.932 322.135 449.567C322.135 450.201 322.22 450.767 322.39 451.264C322.565 451.761 322.823 452.154 323.164 452.443C323.51 452.727 323.936 452.869 324.443 452.869ZM337.128 444.091V446.364H330.558V444.091H337.128ZM332.05 441.477H335.075V451.648C335.075 451.927 335.118 452.145 335.203 452.301C335.288 452.453 335.407 452.559 335.558 452.621C335.714 452.682 335.894 452.713 336.098 452.713C336.24 452.713 336.382 452.701 336.524 452.678C336.666 452.649 336.775 452.628 336.851 452.614L337.327 454.865C337.175 454.912 336.962 454.967 336.687 455.028C336.413 455.095 336.079 455.135 335.686 455.149C334.957 455.178 334.318 455.08 333.768 454.858C333.224 454.635 332.8 454.29 332.497 453.821C332.194 453.352 332.045 452.76 332.05 452.045V441.477ZM343.513 455.213C342.391 455.213 341.425 454.986 340.615 454.531C339.81 454.072 339.19 453.423 338.755 452.585C338.319 451.742 338.101 450.746 338.101 449.595C338.101 448.473 338.319 447.488 338.755 446.641C339.19 445.793 339.803 445.133 340.594 444.659C341.389 444.186 342.322 443.949 343.392 443.949C344.112 443.949 344.782 444.065 345.402 444.297C346.027 444.524 346.572 444.867 347.036 445.327C347.505 445.786 347.869 446.364 348.13 447.06C348.39 447.751 348.52 448.561 348.52 449.489V450.32H339.308V448.445H345.672C345.672 448.009 345.577 447.623 345.388 447.287C345.199 446.951 344.936 446.688 344.6 446.499C344.268 446.304 343.882 446.207 343.442 446.207C342.983 446.207 342.576 446.314 342.22 446.527C341.87 446.735 341.595 447.017 341.397 447.372C341.198 447.723 341.096 448.113 341.091 448.544V450.327C341.091 450.866 341.191 451.333 341.389 451.726C341.593 452.119 341.88 452.422 342.249 452.635C342.618 452.848 343.056 452.955 343.563 452.955C343.899 452.955 344.207 452.907 344.486 452.812C344.765 452.718 345.005 452.576 345.203 452.386C345.402 452.197 345.554 451.965 345.658 451.69L348.456 451.875C348.314 452.547 348.023 453.134 347.583 453.636C347.147 454.134 346.584 454.522 345.892 454.801C345.206 455.076 344.413 455.213 343.513 455.213ZM353.08 448.693V455H350.055V444.091H352.938V446.016H353.066C353.307 445.381 353.712 444.879 354.28 444.51C354.849 444.136 355.538 443.949 356.347 443.949C357.105 443.949 357.765 444.115 358.329 444.446C358.892 444.777 359.33 445.251 359.643 445.866C359.955 446.477 360.111 447.206 360.111 448.054V455H357.086V448.594C357.091 447.926 356.92 447.405 356.574 447.031C356.229 446.652 355.753 446.463 355.147 446.463C354.74 446.463 354.38 446.551 354.067 446.726C353.76 446.901 353.518 447.157 353.343 447.493C353.172 447.824 353.085 448.224 353.08 448.693ZM367.859 444.091V446.364H361.289V444.091H367.859ZM362.78 441.477H365.806V451.648C365.806 451.927 365.849 452.145 365.934 452.301C366.019 452.453 366.137 452.559 366.289 452.621C366.445 452.682 366.625 452.713 366.829 452.713C366.971 452.713 367.113 452.701 367.255 452.678C367.397 452.649 367.506 452.628 367.582 452.614L368.057 454.865C367.906 454.912 367.693 454.967 367.418 455.028C367.144 455.095 366.81 455.135 366.417 455.149C365.688 455.178 365.048 455.08 364.499 454.858C363.955 454.635 363.531 454.29 363.228 453.821C362.925 453.352 362.776 452.76 362.78 452.045V441.477ZM369.389 455V444.091H372.415V455H369.389ZM370.909 442.685C370.459 442.685 370.074 442.536 369.752 442.237C369.434 441.934 369.276 441.572 369.276 441.151C369.276 440.734 369.434 440.376 369.752 440.078C370.074 439.775 370.459 439.624 370.909 439.624C371.359 439.624 371.743 439.775 372.06 440.078C372.382 440.376 372.543 440.734 372.543 441.151C372.543 441.572 372.382 441.934 372.06 442.237C371.743 442.536 371.359 442.685 370.909 442.685ZM377.509 455.206C376.813 455.206 376.193 455.085 375.649 454.844C375.104 454.598 374.673 454.235 374.356 453.757C374.044 453.274 373.887 452.673 373.887 451.953C373.887 451.347 373.999 450.838 374.221 450.426C374.444 450.014 374.747 449.683 375.13 449.432C375.514 449.181 375.949 448.991 376.437 448.864C376.929 448.736 377.446 448.646 377.985 448.594C378.62 448.527 379.131 448.466 379.519 448.409C379.908 448.348 380.189 448.258 380.365 448.139C380.54 448.021 380.627 447.846 380.627 447.614V447.571C380.627 447.121 380.485 446.773 380.201 446.527C379.922 446.281 379.524 446.158 379.008 446.158C378.463 446.158 378.03 446.278 377.708 446.52C377.386 446.757 377.173 447.055 377.069 447.415L374.271 447.188C374.413 446.525 374.692 445.952 375.109 445.469C375.526 444.981 376.063 444.607 376.721 444.347C377.384 444.081 378.151 443.949 379.022 443.949C379.628 443.949 380.208 444.02 380.762 444.162C381.321 444.304 381.816 444.524 382.247 444.822C382.682 445.121 383.026 445.504 383.276 445.973C383.527 446.437 383.653 446.993 383.653 447.642V455H380.784V453.487H380.698C380.523 453.828 380.289 454.129 379.995 454.389C379.702 454.645 379.349 454.846 378.937 454.993C378.525 455.135 378.049 455.206 377.509 455.206ZM378.376 453.118C378.821 453.118 379.214 453.03 379.555 452.855C379.896 452.675 380.163 452.434 380.357 452.131C380.552 451.828 380.649 451.484 380.649 451.101V449.943C380.554 450.005 380.424 450.062 380.258 450.114C380.097 450.161 379.915 450.206 379.711 450.249C379.508 450.286 379.304 450.322 379.1 450.355C378.897 450.384 378.712 450.41 378.546 450.433C378.191 450.485 377.881 450.568 377.616 450.682C377.351 450.795 377.145 450.949 376.998 451.143C376.851 451.333 376.778 451.57 376.778 451.854C376.778 452.266 376.927 452.58 377.225 452.798C377.528 453.011 377.912 453.118 378.376 453.118ZM388.586 440.455V455H385.56V440.455H388.586ZM394.815 455V440.455H400.554C401.657 440.455 402.597 440.665 403.373 441.087C404.15 441.503 404.742 442.083 405.149 442.827C405.561 443.565 405.767 444.418 405.767 445.384C405.767 446.349 405.559 447.202 405.142 447.94C404.725 448.679 404.121 449.254 403.331 449.666C402.545 450.078 401.593 450.284 400.476 450.284H396.818V447.82H399.978C400.57 447.82 401.058 447.718 401.442 447.514C401.83 447.306 402.119 447.019 402.308 446.655C402.502 446.286 402.599 445.862 402.599 445.384C402.599 444.901 402.502 444.479 402.308 444.119C402.119 443.755 401.83 443.473 401.442 443.274C401.053 443.071 400.561 442.969 399.964 442.969H397.89V455H394.815ZM410.085 455.206C409.389 455.206 408.769 455.085 408.225 454.844C407.68 454.598 407.249 454.235 406.932 453.757C406.619 453.274 406.463 452.673 406.463 451.953C406.463 451.347 406.574 450.838 406.797 450.426C407.02 450.014 407.323 449.683 407.706 449.432C408.09 449.181 408.525 448.991 409.013 448.864C409.505 448.736 410.021 448.646 410.561 448.594C411.196 448.527 411.707 448.466 412.095 448.409C412.484 448.348 412.765 448.258 412.94 448.139C413.116 448.021 413.203 447.846 413.203 447.614V447.571C413.203 447.121 413.061 446.773 412.777 446.527C412.498 446.281 412.1 446.158 411.584 446.158C411.039 446.158 410.606 446.278 410.284 446.52C409.962 446.757 409.749 447.055 409.645 447.415L406.847 447.188C406.989 446.525 407.268 445.952 407.685 445.469C408.101 444.981 408.639 444.607 409.297 444.347C409.96 444.081 410.727 443.949 411.598 443.949C412.204 443.949 412.784 444.02 413.338 444.162C413.897 444.304 414.392 444.524 414.823 444.822C415.258 445.121 415.601 445.504 415.852 445.973C416.103 446.437 416.229 446.993 416.229 447.642V455H413.36V453.487H413.274C413.099 453.828 412.865 454.129 412.571 454.389C412.278 454.645 411.925 454.846 411.513 454.993C411.101 455.135 410.625 455.206 410.085 455.206ZM410.952 453.118C411.397 453.118 411.79 453.03 412.131 452.855C412.472 452.675 412.739 452.434 412.933 452.131C413.128 451.828 413.225 451.484 413.225 451.101V449.943C413.13 450.005 413 450.062 412.834 450.114C412.673 450.161 412.491 450.206 412.287 450.249C412.083 450.286 411.88 450.322 411.676 450.355C411.473 450.384 411.288 450.41 411.122 450.433C410.767 450.485 410.457 450.568 410.192 450.682C409.927 450.795 409.721 450.949 409.574 451.143C409.427 451.333 409.354 451.57 409.354 451.854C409.354 452.266 409.503 452.58 409.801 452.798C410.104 453.011 410.488 453.118 410.952 453.118ZM418.136 455V444.091H421.069V445.994H421.183C421.382 445.317 421.716 444.806 422.184 444.46C422.653 444.11 423.193 443.935 423.804 443.935C423.955 443.935 424.119 443.944 424.294 443.963C424.469 443.982 424.623 444.008 424.755 444.041V446.726C424.613 446.683 424.417 446.645 424.166 446.612C423.915 446.579 423.685 446.562 423.477 446.562C423.032 446.562 422.634 446.66 422.284 446.854C421.938 447.043 421.664 447.308 421.46 447.649C421.261 447.99 421.162 448.383 421.162 448.828V455H418.136ZM432.229 444.091V446.364H425.66V444.091H432.229ZM427.151 441.477H430.177V451.648C430.177 451.927 430.219 452.145 430.304 452.301C430.39 452.453 430.508 452.559 430.66 452.621C430.816 452.682 430.996 452.713 431.199 452.713C431.341 452.713 431.483 452.701 431.625 452.678C431.768 452.649 431.876 452.628 431.952 452.614L432.428 454.865C432.276 454.912 432.063 454.967 431.789 455.028C431.514 455.095 431.18 455.135 430.787 455.149C430.058 455.178 429.419 455.08 428.87 454.858C428.325 454.635 427.901 454.29 427.598 453.821C427.295 453.352 427.146 452.76 427.151 452.045V441.477ZM436.786 448.693V455H433.76V444.091H436.644V446.016H436.771C437.013 445.381 437.418 444.879 437.986 444.51C438.554 444.136 439.243 443.949 440.053 443.949C440.81 443.949 441.471 444.115 442.034 444.446C442.598 444.777 443.036 445.251 443.348 445.866C443.661 446.477 443.817 447.206 443.817 448.054V455H440.791V448.594C440.796 447.926 440.626 447.405 440.28 447.031C439.934 446.652 439.458 446.463 438.852 446.463C438.445 446.463 438.085 446.551 437.773 446.726C437.465 446.901 437.224 447.157 437.048 447.493C436.878 447.824 436.79 448.224 436.786 448.693ZM450.733 455.213C449.611 455.213 448.645 454.986 447.835 454.531C447.03 454.072 446.41 453.423 445.975 452.585C445.539 451.742 445.321 450.746 445.321 449.595C445.321 448.473 445.539 447.488 445.975 446.641C446.41 445.793 447.023 445.133 447.814 444.659C448.609 444.186 449.542 443.949 450.612 443.949C451.332 443.949 452.002 444.065 452.622 444.297C453.247 444.524 453.792 444.867 454.256 445.327C454.725 445.786 455.089 446.364 455.35 447.06C455.61 447.751 455.74 448.561 455.74 449.489V450.32H446.528V448.445H452.892C452.892 448.009 452.797 447.623 452.608 447.287C452.419 446.951 452.156 446.688 451.82 446.499C451.488 446.304 451.102 446.207 450.662 446.207C450.203 446.207 449.796 446.314 449.44 446.527C449.09 446.735 448.815 447.017 448.617 447.372C448.418 447.723 448.316 448.113 448.311 448.544V450.327C448.311 450.866 448.411 451.333 448.609 451.726C448.813 452.119 449.1 452.422 449.469 452.635C449.838 452.848 450.276 452.955 450.783 452.955C451.119 452.955 451.427 452.907 451.706 452.812C451.985 452.718 452.225 452.576 452.423 452.386C452.622 452.197 452.774 451.965 452.878 451.69L455.676 451.875C455.534 452.547 455.243 453.134 454.803 453.636C454.367 454.134 453.804 454.522 453.112 454.801C452.426 455.076 451.633 455.213 450.733 455.213ZM457.275 455V444.091H460.208V445.994H460.321C460.52 445.317 460.854 444.806 461.323 444.46C461.792 444.11 462.331 443.935 462.942 443.935C463.094 443.935 463.257 443.944 463.432 443.963C463.607 443.982 463.761 444.008 463.894 444.041V446.726C463.752 446.683 463.555 446.645 463.304 446.612C463.053 446.579 462.824 446.562 462.615 446.562C462.17 446.562 461.773 446.66 461.422 446.854C461.077 447.043 460.802 447.308 460.598 447.649C460.4 447.99 460.3 448.383 460.3 448.828V455H457.275ZM474.095 447.202L471.325 447.372C471.278 447.135 471.176 446.922 471.02 446.733C470.863 446.539 470.657 446.385 470.402 446.271C470.151 446.153 469.85 446.094 469.5 446.094C469.031 446.094 468.636 446.193 468.314 446.392C467.992 446.586 467.831 446.847 467.831 447.173C467.831 447.434 467.935 447.654 468.143 447.834C468.352 448.014 468.709 448.158 469.216 448.267L471.19 448.665C472.251 448.883 473.041 449.233 473.562 449.716C474.083 450.199 474.343 450.833 474.343 451.619C474.343 452.334 474.133 452.962 473.711 453.501C473.295 454.041 472.722 454.463 471.993 454.766C471.268 455.064 470.432 455.213 469.486 455.213C468.041 455.213 466.891 454.912 466.034 454.311C465.182 453.705 464.682 452.881 464.535 451.839L467.511 451.683C467.601 452.124 467.819 452.46 468.164 452.692C468.51 452.919 468.953 453.033 469.493 453.033C470.023 453.033 470.449 452.931 470.771 452.727C471.098 452.519 471.263 452.251 471.268 451.925C471.263 451.65 471.147 451.425 470.92 451.25C470.693 451.07 470.343 450.933 469.869 450.838L467.98 450.462C466.914 450.249 466.121 449.879 465.601 449.354C465.084 448.828 464.826 448.158 464.826 447.344C464.826 446.643 465.016 446.039 465.395 445.533C465.778 445.026 466.316 444.635 467.007 444.361C467.703 444.086 468.517 443.949 469.45 443.949C470.828 443.949 471.912 444.24 472.703 444.822C473.498 445.405 473.962 446.198 474.095 447.202Z" fill="white"/>
<path d="M348.082 104.455H351.875L355.881 114.227H356.051L360.057 104.455H363.849V119H360.866V109.533H360.746L356.981 118.929H354.95L351.186 109.497H351.065V119H348.082V104.455ZM368.997 119.206C368.301 119.206 367.681 119.085 367.136 118.844C366.592 118.598 366.161 118.235 365.844 117.757C365.531 117.274 365.375 116.673 365.375 115.953C365.375 115.347 365.486 114.838 365.709 114.426C365.931 114.014 366.234 113.683 366.618 113.432C367.001 113.181 367.437 112.991 367.925 112.864C368.417 112.736 368.933 112.646 369.473 112.594C370.107 112.527 370.619 112.466 371.007 112.409C371.395 112.348 371.677 112.258 371.852 112.139C372.027 112.021 372.115 111.846 372.115 111.614V111.571C372.115 111.121 371.973 110.773 371.689 110.527C371.409 110.281 371.012 110.158 370.496 110.158C369.951 110.158 369.518 110.278 369.196 110.52C368.874 110.757 368.661 111.055 368.557 111.415L365.758 111.187C365.9 110.525 366.18 109.952 366.596 109.469C367.013 108.981 367.551 108.607 368.209 108.347C368.872 108.081 369.639 107.949 370.51 107.949C371.116 107.949 371.696 108.02 372.25 108.162C372.809 108.304 373.303 108.524 373.734 108.822C374.17 109.121 374.513 109.504 374.764 109.973C375.015 110.437 375.14 110.993 375.14 111.642V119H372.271V117.487H372.186C372.011 117.828 371.776 118.129 371.483 118.389C371.189 118.645 370.836 118.846 370.425 118.993C370.013 119.135 369.537 119.206 368.997 119.206ZM369.863 117.118C370.309 117.118 370.702 117.03 371.042 116.855C371.383 116.675 371.651 116.434 371.845 116.131C372.039 115.828 372.136 115.484 372.136 115.101V113.943C372.042 114.005 371.911 114.062 371.746 114.114C371.585 114.161 371.402 114.206 371.199 114.249C370.995 114.286 370.792 114.322 370.588 114.355C370.384 114.384 370.2 114.41 370.034 114.433C369.679 114.485 369.369 114.568 369.104 114.682C368.838 114.795 368.632 114.949 368.486 115.143C368.339 115.333 368.265 115.57 368.265 115.854C368.265 116.266 368.415 116.58 368.713 116.798C369.016 117.011 369.399 117.118 369.863 117.118ZM377.048 119V108.091H379.981V109.994H380.095C380.294 109.317 380.627 108.806 381.096 108.46C381.565 108.11 382.105 107.935 382.715 107.935C382.867 107.935 383.03 107.944 383.205 107.963C383.381 107.982 383.535 108.008 383.667 108.041V110.726C383.525 110.683 383.329 110.645 383.078 110.612C382.827 110.579 382.597 110.562 382.389 110.562C381.944 110.562 381.546 110.66 381.196 110.854C380.85 111.043 380.575 111.308 380.372 111.649C380.173 111.99 380.073 112.383 380.073 112.828V119H377.048ZM387.533 115.861L387.54 112.232H387.98L391.475 108.091H394.948L390.253 113.574H389.536L387.533 115.861ZM384.791 119V104.455H387.817V119H384.791ZM391.61 119L388.399 114.249L390.416 112.111L395.154 119H391.61ZM400.514 119.213C399.392 119.213 398.426 118.986 397.617 118.531C396.812 118.072 396.191 117.423 395.756 116.585C395.32 115.742 395.102 114.746 395.102 113.595C395.102 112.473 395.32 111.488 395.756 110.641C396.191 109.793 396.805 109.133 397.595 108.659C398.391 108.186 399.324 107.949 400.394 107.949C401.113 107.949 401.783 108.065 402.404 108.297C403.029 108.524 403.573 108.867 404.037 109.327C404.506 109.786 404.87 110.364 405.131 111.06C405.391 111.751 405.521 112.561 405.521 113.489V114.32H396.31V112.445H402.673C402.673 112.009 402.579 111.623 402.389 111.287C402.2 110.951 401.937 110.688 401.601 110.499C401.27 110.304 400.884 110.207 400.443 110.207C399.984 110.207 399.577 110.314 399.222 110.527C398.871 110.735 398.597 111.017 398.398 111.372C398.199 111.723 398.097 112.113 398.092 112.544V114.327C398.092 114.866 398.192 115.333 398.391 115.726C398.594 116.119 398.881 116.422 399.25 116.635C399.619 116.848 400.057 116.955 400.564 116.955C400.9 116.955 401.208 116.907 401.487 116.812C401.767 116.718 402.006 116.576 402.205 116.386C402.404 116.197 402.555 115.965 402.659 115.69L405.458 115.875C405.316 116.547 405.024 117.134 404.584 117.636C404.148 118.134 403.585 118.522 402.894 118.801C402.207 119.076 401.414 119.213 400.514 119.213ZM412.858 108.091V110.364L406.289 110.364V108.091L412.858 108.091ZM407.78 105.477H410.806V115.648C410.806 115.927 410.849 116.145 410.934 116.301C411.019 116.453 411.137 116.559 411.289 116.621C411.445 116.682 411.625 116.713 411.829 116.713C411.971 116.713 412.113 116.701 412.255 116.678C412.397 116.649 412.506 116.628 412.581 116.614L413.057 118.865C412.906 118.912 412.693 118.967 412.418 119.028C412.144 119.095 411.81 119.135 411.417 119.149C410.688 119.178 410.048 119.08 409.499 118.858C408.955 118.635 408.531 118.29 408.228 117.821C407.925 117.352 407.776 116.76 407.78 116.045V105.477ZM314.635 149H311.339L316.36 134.455H320.323L325.338 149H322.042L318.399 137.778H318.285L314.635 149ZM314.429 143.283H322.213V145.683H314.429V143.283ZM331.71 138.091V140.364H325.141V138.091H331.71ZM326.632 135.477H329.658V145.648C329.658 145.927 329.701 146.145 329.786 146.301C329.871 146.453 329.989 146.559 330.141 146.621C330.297 146.682 330.477 146.713 330.681 146.713C330.823 146.713 330.965 146.701 331.107 146.678C331.249 146.649 331.358 146.628 331.434 146.614L331.909 148.865C331.758 148.912 331.545 148.967 331.27 149.028C330.996 149.095 330.662 149.135 330.269 149.149C329.54 149.178 328.9 149.08 328.351 148.858C327.807 148.635 327.383 148.29 327.08 147.821C326.777 147.352 326.628 146.76 326.632 146.045V135.477ZM339.044 138.091V140.364H332.474V138.091H339.044ZM333.966 135.477H336.991V145.648C336.991 145.927 337.034 146.145 337.119 146.301C337.204 146.453 337.323 146.559 337.474 146.621C337.631 146.682 337.811 146.713 338.014 146.713C338.156 146.713 338.298 146.701 338.44 146.678C338.582 146.649 338.691 146.628 338.767 146.614L339.243 148.865C339.091 148.912 338.878 148.967 338.604 149.028C338.329 149.095 337.995 149.135 337.602 149.149C336.873 149.178 336.234 149.08 335.685 148.858C335.14 148.635 334.716 148.29 334.413 147.821C334.11 147.352 333.961 146.76 333.966 146.045V135.477ZM340.575 149V138.091H343.508V139.994H343.622C343.821 139.317 344.154 138.806 344.623 138.46C345.092 138.11 345.632 137.935 346.242 137.935C346.394 137.935 346.557 137.944 346.732 137.963C346.908 137.982 347.062 138.008 347.194 138.041V140.726C347.052 140.683 346.856 140.645 346.605 140.612C346.354 140.579 346.124 140.562 345.916 140.562C345.471 140.562 345.073 140.66 344.723 140.854C344.377 141.043 344.102 141.308 343.899 141.649C343.7 141.99 343.6 142.383 343.6 142.828V149H340.575ZM351.117 149.206C350.421 149.206 349.8 149.085 349.256 148.844C348.711 148.598 348.281 148.235 347.963 147.757C347.651 147.274 347.495 146.673 347.495 145.953C347.495 145.347 347.606 144.838 347.828 144.426C348.051 144.014 348.354 143.683 348.737 143.432C349.121 143.181 349.557 142.991 350.044 142.864C350.537 142.736 351.053 142.646 351.593 142.594C352.227 142.527 352.738 142.466 353.127 142.409C353.515 142.348 353.797 142.258 353.972 142.139C354.147 142.021 354.235 141.846 354.235 141.614V141.571C354.235 141.121 354.093 140.773 353.808 140.527C353.529 140.281 353.131 140.158 352.615 140.158C352.071 140.158 351.638 140.278 351.316 140.52C350.994 140.757 350.781 141.055 350.676 141.415L347.878 141.187C348.02 140.525 348.299 139.952 348.716 139.469C349.133 138.981 349.67 138.607 350.328 138.347C350.991 138.081 351.758 137.949 352.629 137.949C353.236 137.949 353.816 138.02 354.37 138.162C354.928 138.304 355.423 138.524 355.854 138.822C356.29 139.121 356.633 139.504 356.884 139.973C357.135 140.437 357.26 140.993 357.26 141.642V149H354.391V147.487H354.306C354.13 147.828 353.896 148.129 353.603 148.389C353.309 148.645 352.956 148.846 352.544 148.993C352.132 149.135 351.656 149.206 351.117 149.206ZM351.983 147.118C352.428 147.118 352.821 147.03 353.162 146.855C353.503 146.675 353.771 146.434 353.965 146.131C354.159 145.828 354.256 145.484 354.256 145.101V143.943C354.161 144.005 354.031 144.062 353.865 144.114C353.704 144.161 353.522 144.206 353.318 144.249C353.115 144.286 352.911 144.322 352.708 144.355C352.504 144.384 352.319 144.41 352.154 144.433C351.799 144.485 351.488 144.568 351.223 144.682C350.958 144.795 350.752 144.949 350.605 145.143C350.459 145.333 350.385 145.57 350.385 145.854C350.385 146.266 350.534 146.58 350.833 146.798C351.136 147.011 351.519 147.118 351.983 147.118ZM364.096 149.213C362.979 149.213 362.018 148.976 361.213 148.503C360.413 148.025 359.797 147.362 359.366 146.514C358.94 145.667 358.727 144.691 358.727 143.588C358.727 142.471 358.943 141.491 359.373 140.648C359.809 139.8 360.427 139.14 361.227 138.666C362.027 138.188 362.979 137.949 364.082 137.949C365.034 137.949 365.867 138.122 366.582 138.467C367.297 138.813 367.863 139.298 368.28 139.923C368.696 140.548 368.926 141.282 368.969 142.125H366.113C366.033 141.58 365.82 141.143 365.474 140.811C365.133 140.475 364.686 140.307 364.132 140.307C363.663 140.307 363.254 140.435 362.903 140.69C362.558 140.941 362.288 141.308 362.094 141.791C361.899 142.274 361.802 142.859 361.802 143.545C361.802 144.241 361.897 144.833 362.087 145.321C362.281 145.809 362.553 146.18 362.903 146.436C363.254 146.692 363.663 146.82 364.132 146.82C364.478 146.82 364.788 146.749 365.062 146.607C365.342 146.464 365.571 146.259 365.751 145.989C365.936 145.714 366.057 145.385 366.113 145.001H368.969C368.921 145.835 368.694 146.569 368.287 147.203C367.884 147.833 367.328 148.325 366.618 148.68C365.908 149.036 365.067 149.213 364.096 149.213ZM376.268 138.091V140.364H369.699V138.091H376.268ZM371.19 135.477H374.216V145.648C374.216 145.927 374.258 146.145 374.344 146.301C374.429 146.453 374.547 146.559 374.699 146.621C374.855 146.682 375.035 146.713 375.238 146.713C375.381 146.713 375.523 146.701 375.665 146.678C375.807 146.649 375.916 146.628 375.991 146.614L376.467 148.865C376.316 148.912 376.103 148.967 375.828 149.028C375.553 149.095 375.22 149.135 374.827 149.149C374.097 149.178 373.458 149.08 372.909 148.858C372.364 148.635 371.941 148.29 371.638 147.821C371.335 147.352 371.185 146.76 371.19 146.045V135.477ZM377.799 149V138.091H380.825V149H377.799ZM379.319 136.685C378.869 136.685 378.483 136.536 378.161 136.237C377.844 135.934 377.686 135.572 377.686 135.151C377.686 134.734 377.844 134.376 378.161 134.078C378.483 133.775 378.869 133.624 379.319 133.624C379.769 133.624 380.152 133.775 380.47 134.078C380.792 134.376 380.953 134.734 380.953 135.151C380.953 135.572 380.792 135.934 380.47 136.237C380.152 136.536 379.769 136.685 379.319 136.685ZM392.979 138.091L389.165 149H385.756L381.942 138.091H385.138L387.404 145.896H387.517L389.776 138.091H392.979ZM398.707 149.213C397.585 149.213 396.619 148.986 395.809 148.531C395.005 148.072 394.384 147.423 393.949 146.585C393.513 145.742 393.295 144.746 393.295 143.595C393.295 142.473 393.513 141.488 393.949 140.641C394.384 139.793 394.997 139.133 395.788 138.659C396.584 138.186 397.516 137.949 398.586 137.949C399.306 137.949 399.976 138.065 400.596 138.297C401.221 138.524 401.766 138.867 402.23 139.327C402.699 139.786 403.063 140.364 403.324 141.06C403.584 141.751 403.714 142.561 403.714 143.489V144.32H394.503V142.445H400.866C400.866 142.009 400.772 141.623 400.582 141.287C400.393 140.951 400.13 140.688 399.794 140.499C399.462 140.304 399.077 140.207 398.636 140.207C398.177 140.207 397.77 140.314 397.415 140.527C397.064 140.735 396.79 141.017 396.591 141.372C396.392 141.723 396.29 142.113 396.285 142.544V144.327C396.285 144.866 396.385 145.333 396.584 145.726C396.787 146.119 397.074 146.422 397.443 146.635C397.812 146.848 398.25 146.955 398.757 146.955C399.093 146.955 399.401 146.907 399.68 146.812C399.96 146.718 400.199 146.576 400.398 146.386C400.596 146.197 400.748 145.965 400.852 145.69L403.65 145.875C403.508 146.547 403.217 147.134 402.777 147.636C402.341 148.134 401.778 148.522 401.086 148.801C400.4 149.076 399.607 149.213 398.707 149.213ZM408.274 142.693V149H405.249V138.091H408.132V140.016H408.26C408.502 139.381 408.906 138.879 409.475 138.51C410.043 138.136 410.732 137.949 411.541 137.949C412.299 137.949 412.959 138.115 413.523 138.446C414.086 138.777 414.524 139.251 414.837 139.866C415.149 140.477 415.306 141.206 415.306 142.054V149H412.28V142.594C412.285 141.926 412.114 141.405 411.769 141.031C411.423 140.652 410.947 140.463 410.341 140.463C409.934 140.463 409.574 140.551 409.261 140.726C408.954 140.901 408.712 141.157 408.537 141.493C408.367 141.824 408.279 142.224 408.274 142.693ZM422.222 149.213C421.1 149.213 420.134 148.986 419.324 148.531C418.519 148.072 417.899 147.423 417.463 146.585C417.028 145.742 416.81 144.746 416.81 143.595C416.81 142.473 417.028 141.488 417.463 140.641C417.899 139.793 418.512 139.133 419.303 138.659C420.098 138.186 421.031 137.949 422.101 137.949C422.821 137.949 423.491 138.065 424.111 138.297C424.736 138.524 425.28 138.867 425.744 139.327C426.213 139.786 426.578 140.364 426.838 141.06C427.099 141.751 427.229 142.561 427.229 143.489V144.32H418.017V142.445H424.381C424.381 142.009 424.286 141.623 424.097 141.287C423.907 140.951 423.645 140.688 423.308 140.499C422.977 140.304 422.591 140.207 422.151 140.207C421.691 140.207 421.284 140.314 420.929 140.527C420.579 140.735 420.304 141.017 420.105 141.372C419.906 141.723 419.805 142.113 419.8 142.544V144.327C419.8 144.866 419.899 145.333 420.098 145.726C420.302 146.119 420.588 146.422 420.958 146.635C421.327 146.848 421.765 146.955 422.271 146.955C422.608 146.955 422.915 146.907 423.195 146.812C423.474 146.718 423.713 146.576 423.912 146.386C424.111 146.197 424.262 145.965 424.367 145.69L427.165 145.875C427.023 146.547 426.732 147.134 426.291 147.636C425.856 148.134 425.292 148.522 424.601 148.801C423.914 149.076 423.121 149.213 422.222 149.213ZM437.84 141.202L435.07 141.372C435.023 141.135 434.921 140.922 434.765 140.733C434.608 140.539 434.402 140.385 434.147 140.271C433.896 140.153 433.595 140.094 433.245 140.094C432.776 140.094 432.381 140.193 432.059 140.392C431.737 140.586 431.576 140.847 431.576 141.173C431.576 141.434 431.68 141.654 431.888 141.834C432.097 142.014 432.454 142.158 432.961 142.267L434.935 142.665C435.996 142.883 436.786 143.233 437.307 143.716C437.828 144.199 438.089 144.833 438.089 145.619C438.089 146.334 437.878 146.962 437.456 147.501C437.04 148.041 436.467 148.463 435.738 148.766C435.013 149.064 434.178 149.213 433.231 149.213C431.786 149.213 430.636 148.912 429.779 148.311C428.927 147.705 428.427 146.881 428.28 145.839L431.256 145.683C431.346 146.124 431.564 146.46 431.91 146.692C432.255 146.919 432.698 147.033 433.238 147.033C433.768 147.033 434.194 146.931 434.516 146.727C434.843 146.519 435.009 146.251 435.013 145.925C435.009 145.65 434.893 145.425 434.665 145.25C434.438 145.07 434.088 144.933 433.614 144.838L431.725 144.462C430.66 144.249 429.866 143.879 429.346 143.354C428.83 142.828 428.571 142.158 428.571 141.344C428.571 140.643 428.761 140.039 429.14 139.533C429.523 139.026 430.061 138.635 430.752 138.361C431.448 138.086 432.262 137.949 433.195 137.949C434.573 137.949 435.657 138.24 436.448 138.822C437.243 139.405 437.707 140.198 437.84 141.202ZM448.63 141.202L445.861 141.372C445.813 141.135 445.711 140.922 445.555 140.733C445.399 140.539 445.193 140.385 444.937 140.271C444.686 140.153 444.386 140.094 444.035 140.094C443.567 140.094 443.171 140.193 442.849 140.392C442.527 140.586 442.366 140.847 442.366 141.173C442.366 141.434 442.47 141.654 442.679 141.834C442.887 142.014 443.245 142.158 443.751 142.267L445.726 142.665C446.786 142.883 447.577 143.233 448.098 143.716C448.619 144.199 448.879 144.833 448.879 145.619C448.879 146.334 448.668 146.962 448.247 147.501C447.83 148.041 447.257 148.463 446.528 148.766C445.804 149.064 444.968 149.213 444.021 149.213C442.577 149.213 441.426 148.912 440.569 148.311C439.717 147.705 439.218 146.881 439.071 145.839L442.047 145.683C442.137 146.124 442.354 146.46 442.7 146.692C443.046 146.919 443.488 147.033 444.028 147.033C444.558 147.033 444.985 146.931 445.307 146.727C445.633 146.519 445.799 146.251 445.804 145.925C445.799 145.65 445.683 145.425 445.456 145.25C445.228 145.07 444.878 144.933 444.405 144.838L442.515 144.462C441.45 144.249 440.657 143.879 440.136 143.354C439.62 142.828 439.362 142.158 439.362 141.344C439.362 140.643 439.551 140.039 439.93 139.533C440.314 139.026 440.851 138.635 441.542 138.361C442.238 138.086 443.053 137.949 443.986 137.949C445.363 137.949 446.448 138.24 447.238 138.822C448.034 139.405 448.498 140.198 448.63 141.202Z" fill="white"/>
<path d="M159.81 538.795C112.644 515.855 72.7584 480.356 44.5626 436.222C16.3668 392.089 0.959202 341.039 0.0433508 288.718C-0.8725 236.397 12.739 184.843 39.3731 139.755C66.0071 94.6668 104.626 57.8013 150.96 33.2344L231.113 183.554C212.579 193.38 197.131 208.126 186.478 226.162C175.824 244.197 170.379 264.819 170.746 285.747C171.112 306.676 177.275 327.095 188.553 344.749C199.832 362.402 215.786 376.602 234.652 385.778L159.81 538.795Z" fill="url(#paint2_linear_15_659)"/>
<path d="M28.0578 288L28.0578 273.455H37.6885V275.99H31.1331V279.456H37.0493V281.991H31.1331L31.1331 288H28.0578ZM39.2602 288V277.091H42.2858V288H39.2602ZM40.7801 275.685C40.3303 275.685 39.9444 275.536 39.6224 275.237C39.3052 274.934 39.1466 274.572 39.1466 274.151C39.1466 273.734 39.3052 273.376 39.6224 273.078C39.9444 272.775 40.3303 272.624 40.7801 272.624C41.2299 272.624 41.6134 272.775 41.9307 273.078C42.2526 273.376 42.4136 273.734 42.4136 274.151C42.4136 274.572 42.2526 274.934 41.9307 275.237C41.6134 275.536 41.2299 275.685 40.7801 275.685ZM47.295 281.693V288H44.2694V277.091H47.1529V279.016H47.2808C47.5223 278.381 47.9271 277.879 48.4953 277.51C49.0635 277.136 49.7524 276.949 50.562 276.949C51.3196 276.949 51.9801 277.115 52.5436 277.446C53.107 277.777 53.545 278.251 53.8575 278.866C54.17 279.477 54.3262 280.206 54.3262 281.054V288H51.3007V281.594C51.3054 280.926 51.1349 280.405 50.7893 280.031C50.4437 279.652 49.9678 279.463 49.3617 279.463C48.9546 279.463 48.5947 279.551 48.2822 279.726C47.9744 279.901 47.733 280.157 47.5578 280.493C47.3873 280.824 47.2997 281.224 47.295 281.693ZM60.2907 288.178C59.4621 288.178 58.7116 287.964 58.0393 287.538C57.3717 287.107 56.8414 286.475 56.4484 285.642C56.0601 284.804 55.866 283.777 55.866 282.56C55.866 281.31 56.0672 280.27 56.4697 279.442C56.8722 278.608 57.4072 277.986 58.0748 277.574C58.7472 277.157 59.4834 276.949 60.2836 276.949C60.8944 276.949 61.4034 277.053 61.8106 277.261C62.2225 277.465 62.554 277.721 62.8049 278.028C63.0606 278.331 63.2547 278.63 63.3873 278.923H63.4796V273.455H66.4981V288H63.5151V286.253H63.3873C63.2453 286.556 63.044 286.857 62.7836 287.155C62.5279 287.448 62.1941 287.692 61.7822 287.886C61.375 288.08 60.8778 288.178 60.2907 288.178ZM61.2495 285.77C61.7372 285.77 62.1491 285.637 62.4853 285.372C62.8262 285.102 63.0866 284.726 63.2666 284.243C63.4512 283.76 63.5436 283.194 63.5436 282.545C63.5436 281.897 63.4536 281.333 63.2737 280.855C63.0937 280.377 62.8333 280.008 62.4924 279.747C62.1515 279.487 61.7372 279.357 61.2495 279.357C60.7524 279.357 60.3333 279.491 59.9924 279.761C59.6515 280.031 59.3935 280.405 59.2183 280.884C59.0431 281.362 58.9555 281.916 58.9555 282.545C58.9555 283.18 59.0431 283.741 59.2183 284.229C59.3982 284.712 59.6562 285.09 59.9924 285.365C60.3333 285.635 60.7524 285.77 61.2495 285.77ZM72.7914 288V273.455H78.6153C79.6853 273.455 80.5779 273.613 81.2928 273.93C82.0078 274.248 82.5452 274.688 82.905 275.251C83.2649 275.81 83.4448 276.454 83.4448 277.183C83.4448 277.751 83.3312 278.251 83.1039 278.682C82.8766 279.108 82.5641 279.458 82.1664 279.733C81.7734 280.003 81.3236 280.195 80.817 280.308V280.45C81.3709 280.474 81.8894 280.63 82.3724 280.919C82.86 281.208 83.2554 281.613 83.5584 282.134C83.8615 282.65 84.013 283.265 84.013 283.98C84.013 284.752 83.8212 285.441 83.4377 286.047C83.0589 286.648 82.4978 287.124 81.7545 287.474C81.0111 287.825 80.0949 288 79.0059 288H72.7914ZM75.8667 285.486H78.3738C79.2308 285.486 79.8558 285.322 80.2488 284.996C80.6418 284.664 80.8383 284.224 80.8383 283.675C80.8383 283.272 80.7412 282.917 80.5471 282.609C80.3529 282.302 80.076 282.06 79.7161 281.885C79.361 281.71 78.9372 281.622 78.4448 281.622H75.8667V285.486ZM75.8667 279.541H78.1465C78.5679 279.541 78.942 279.468 79.2687 279.321C79.6001 279.17 79.8605 278.956 80.0499 278.682C80.244 278.407 80.3411 278.078 80.3411 277.695C80.3411 277.169 80.1541 276.745 79.78 276.423C79.4107 276.101 78.8851 275.94 78.2033 275.94H75.8667V279.541ZM92.513 283.355V277.091H95.5385V288H92.6337V286.018H92.5201C92.2739 286.658 91.8643 287.171 91.2914 287.56C90.7232 287.948 90.0295 288.142 89.2104 288.142C88.4812 288.142 87.8397 287.976 87.2857 287.645C86.7317 287.313 86.2985 286.842 85.986 286.232C85.6782 285.621 85.522 284.889 85.5172 284.037V277.091H88.5428V283.497C88.5475 284.141 88.7204 284.65 89.0613 285.024C89.4022 285.398 89.8591 285.585 90.432 285.585C90.7966 285.585 91.1375 285.502 91.4547 285.337C91.772 285.166 92.0276 284.915 92.2218 284.584C92.4206 284.252 92.5177 283.843 92.513 283.355ZM106.595 280.202L103.825 280.372C103.778 280.135 103.676 279.922 103.52 279.733C103.364 279.539 103.158 279.385 102.902 279.271C102.651 279.153 102.351 279.094 102 279.094C101.531 279.094 101.136 279.193 100.814 279.392C100.492 279.586 100.331 279.847 100.331 280.173C100.331 280.434 100.435 280.654 100.644 280.834C100.852 281.014 101.209 281.158 101.716 281.267L103.691 281.665C104.751 281.883 105.542 282.233 106.063 282.716C106.584 283.199 106.844 283.833 106.844 284.619C106.844 285.334 106.633 285.962 106.212 286.501C105.795 287.041 105.222 287.463 104.493 287.766C103.769 288.064 102.933 288.213 101.986 288.213C100.542 288.213 99.3913 287.912 98.5343 287.311C97.682 286.705 97.1825 285.881 97.0357 284.839L100.012 284.683C100.101 285.124 100.319 285.46 100.665 285.692C101.011 285.919 101.453 286.033 101.993 286.033C102.523 286.033 102.95 285.931 103.271 285.727C103.598 285.519 103.764 285.251 103.769 284.925C103.764 284.65 103.648 284.425 103.421 284.25C103.193 284.07 102.843 283.933 102.369 283.838L100.48 283.462C99.4149 283.249 98.6219 282.879 98.101 282.354C97.5849 281.828 97.3269 281.158 97.3269 280.344C97.3269 279.643 97.5163 279.039 97.8951 278.533C98.2786 278.026 98.816 277.635 99.5073 277.361C100.203 277.086 101.018 276.949 101.95 276.949C103.328 276.949 104.413 277.24 105.203 277.822C105.999 278.405 106.463 279.198 106.595 280.202ZM108.309 288V277.091H111.335V288H108.309ZM109.829 275.685C109.379 275.685 108.993 275.536 108.671 275.237C108.354 274.934 108.195 274.572 108.195 274.151C108.195 273.734 108.354 273.376 108.671 273.078C108.993 272.775 109.379 272.624 109.829 272.624C110.279 272.624 110.662 272.775 110.98 273.078C111.302 273.376 111.463 273.734 111.463 274.151C111.463 274.572 111.302 274.934 110.98 275.237C110.662 275.536 110.279 275.685 109.829 275.685ZM116.344 281.693V288H113.318V277.091H116.202V279.016H116.33C116.571 278.381 116.976 277.879 117.544 277.51C118.112 277.136 118.801 276.949 119.611 276.949C120.369 276.949 121.029 277.115 121.592 277.446C122.156 277.777 122.594 278.251 122.906 278.866C123.219 279.477 123.375 280.206 123.375 281.054V288H120.35V281.594C120.354 280.926 120.184 280.405 119.838 280.031C119.493 279.652 119.017 279.463 118.411 279.463C118.003 279.463 117.644 279.551 117.331 279.726C117.023 279.901 116.782 280.157 116.607 280.493C116.436 280.824 116.349 281.224 116.344 281.693ZM130.291 288.213C129.169 288.213 128.203 287.986 127.394 287.531C126.589 287.072 125.968 286.423 125.533 285.585C125.097 284.742 124.879 283.746 124.879 282.595C124.879 281.473 125.097 280.488 125.533 279.641C125.968 278.793 126.582 278.133 127.372 277.659C128.168 277.186 129.101 276.949 130.171 276.949C130.89 276.949 131.56 277.065 132.181 277.297C132.806 277.524 133.35 277.867 133.814 278.327C134.283 278.786 134.647 279.364 134.908 280.06C135.168 280.751 135.298 281.561 135.298 282.489V283.32H126.087V281.445H132.45C132.45 281.009 132.356 280.623 132.166 280.287C131.977 279.951 131.714 279.688 131.378 279.499C131.047 279.304 130.661 279.207 130.22 279.207C129.761 279.207 129.354 279.314 128.999 279.527C128.648 279.735 128.374 280.017 128.175 280.372C127.976 280.723 127.874 281.113 127.869 281.544V283.327C127.869 283.866 127.969 284.333 128.168 284.726C128.371 285.119 128.658 285.422 129.027 285.635C129.396 285.848 129.834 285.955 130.341 285.955C130.677 285.955 130.985 285.907 131.264 285.812C131.544 285.718 131.783 285.576 131.982 285.386C132.181 285.197 132.332 284.965 132.436 284.69L135.235 284.875C135.092 285.547 134.801 286.134 134.361 286.636C133.925 287.134 133.362 287.522 132.671 287.801C131.984 288.076 131.191 288.213 130.291 288.213ZM145.91 280.202L143.14 280.372C143.092 280.135 142.991 279.922 142.834 279.733C142.678 279.539 142.472 279.385 142.216 279.271C141.965 279.153 141.665 279.094 141.314 279.094C140.846 279.094 140.45 279.193 140.128 279.392C139.806 279.586 139.645 279.847 139.645 280.173C139.645 280.434 139.75 280.654 139.958 280.834C140.166 281.014 140.524 281.158 141.03 281.267L143.005 281.665C144.065 281.883 144.856 282.233 145.377 282.716C145.898 283.199 146.158 283.833 146.158 284.619C146.158 285.334 145.947 285.962 145.526 286.501C145.109 287.041 144.536 287.463 143.807 287.766C143.083 288.064 142.247 288.213 141.3 288.213C139.856 288.213 138.705 287.912 137.848 287.311C136.996 286.705 136.497 285.881 136.35 284.839L139.326 284.683C139.416 285.124 139.634 285.46 139.979 285.692C140.325 285.919 140.768 286.033 141.307 286.033C141.838 286.033 142.264 285.931 142.586 285.727C142.912 285.519 143.078 285.251 143.083 284.925C143.078 284.65 142.962 284.425 142.735 284.25C142.508 284.07 142.157 283.933 141.684 283.838L139.795 283.462C138.729 283.249 137.936 282.879 137.415 282.354C136.899 281.828 136.641 281.158 136.641 280.344C136.641 279.643 136.83 279.039 137.209 278.533C137.593 278.026 138.13 277.635 138.821 277.361C139.518 277.086 140.332 276.949 141.265 276.949C142.643 276.949 143.727 277.24 144.518 277.822C145.313 278.405 145.777 279.198 145.91 280.202ZM156.7 280.202L153.93 280.372C153.883 280.135 153.781 279.922 153.625 279.733C153.468 279.539 153.263 279.385 153.007 279.271C152.756 279.153 152.455 279.094 152.105 279.094C151.636 279.094 151.241 279.193 150.919 279.392C150.597 279.586 150.436 279.847 150.436 280.173C150.436 280.434 150.54 280.654 150.748 280.834C150.957 281.014 151.314 281.158 151.821 281.267L153.795 281.665C154.856 281.883 155.647 282.233 156.167 282.716C156.688 283.199 156.949 283.833 156.949 284.619C156.949 285.334 156.738 285.962 156.317 286.501C155.9 287.041 155.327 287.463 154.598 287.766C153.873 288.064 153.038 288.213 152.091 288.213C150.647 288.213 149.496 287.912 148.639 287.311C147.787 286.705 147.287 285.881 147.14 284.839L150.116 284.683C150.206 285.124 150.424 285.46 150.77 285.692C151.115 285.919 151.558 286.033 152.098 286.033C152.628 286.033 153.054 285.931 153.376 285.727C153.703 285.519 153.869 285.251 153.873 284.925C153.869 284.65 153.753 284.425 153.525 284.25C153.298 284.07 152.948 283.933 152.474 283.838L150.585 283.462C149.52 283.249 148.727 282.879 148.206 282.354C147.69 281.828 147.432 281.158 147.432 280.344C147.432 279.643 147.621 279.039 148 278.533C148.383 278.026 148.921 277.635 149.612 277.361C150.308 277.086 151.122 276.949 152.055 276.949C153.433 276.949 154.517 277.24 155.308 277.822C156.103 278.405 156.567 279.198 156.7 280.202ZM41.0383 310.727C41.0383 312.313 40.7376 313.663 40.1363 314.776C39.5397 315.888 38.7253 316.738 37.6931 317.325C36.6656 317.908 35.5103 318.199 34.2272 318.199C32.9346 318.199 31.7745 317.905 30.7471 317.318C29.7196 316.731 28.9076 315.881 28.311 314.768C27.7144 313.656 27.4161 312.309 27.4161 310.727C27.4161 309.141 27.7144 307.792 28.311 306.679C28.9076 305.566 29.7196 304.719 30.7471 304.136C31.7745 303.549 32.9346 303.256 34.2272 303.256C35.5103 303.256 36.6656 303.549 37.6931 304.136C38.7253 304.719 39.5397 305.566 40.1363 306.679C40.7376 307.792 41.0383 309.141 41.0383 310.727ZM37.9204 310.727C37.9204 309.7 37.7665 308.833 37.4587 308.128C37.1557 307.422 36.7272 306.887 36.1732 306.523C35.6192 306.158 34.9706 305.976 34.2272 305.976C33.4838 305.976 32.8351 306.158 32.2812 306.523C31.7272 306.887 31.2963 307.422 30.9885 308.128C30.6855 308.833 30.534 309.7 30.534 310.727C30.534 311.755 30.6855 312.621 30.9885 313.327C31.2963 314.032 31.7272 314.567 32.2812 314.932C32.8351 315.296 33.4838 315.479 34.2272 315.479C34.9706 315.479 35.6192 315.296 36.1732 314.932C36.7272 314.567 37.1557 314.032 37.4587 313.327C37.7665 312.621 37.9204 311.755 37.9204 310.727ZM42.8195 322.091V307.091H45.8025V308.923H45.9374C46.07 308.63 46.2617 308.331 46.5127 308.028C46.7684 307.721 47.0998 307.465 47.507 307.261C47.9189 307.053 48.4303 306.949 49.0411 306.949C49.8365 306.949 50.5704 307.157 51.2428 307.574C51.9151 307.986 52.4525 308.608 52.855 309.442C53.2575 310.27 53.4587 311.31 53.4587 312.56C53.4587 313.777 53.2622 314.804 52.8692 315.642C52.481 316.475 51.9507 317.107 51.2783 317.538C50.6107 317.964 49.8626 318.178 49.034 318.178C48.4469 318.178 47.9473 318.08 47.5354 317.886C47.1282 317.692 46.7944 317.448 46.534 317.155C46.2736 316.857 46.0747 316.556 45.9374 316.253H45.8451V322.091H42.8195ZM45.7811 312.545C45.7811 313.194 45.8711 313.76 46.051 314.243C46.231 314.726 46.4914 315.102 46.8323 315.372C47.1732 315.637 47.5875 315.77 48.0752 315.77C48.5676 315.77 48.9843 315.635 49.3252 315.365C49.6661 315.09 49.9241 314.712 50.0993 314.229C50.2793 313.741 50.3692 313.18 50.3692 312.545C50.3692 311.916 50.2816 311.362 50.1064 310.884C49.9312 310.405 49.6732 310.031 49.3323 309.761C48.9914 309.491 48.5723 309.357 48.0752 309.357C47.5828 309.357 47.1661 309.487 46.8252 309.747C46.489 310.008 46.231 310.377 46.051 310.855C45.8711 311.333 45.7811 311.897 45.7811 312.545ZM55.0357 322.091V307.091H58.0187V308.923H58.1536C58.2862 308.63 58.478 308.331 58.7289 308.028C58.9846 307.721 59.3161 307.465 59.7232 307.261C60.1352 307.053 60.6465 306.949 61.2573 306.949C62.0528 306.949 62.7867 307.157 63.459 307.574C64.1314 307.986 64.6688 308.608 65.0713 309.442C65.4737 310.27 65.675 311.31 65.675 312.56C65.675 313.777 65.4785 314.804 65.0855 315.642C64.6972 316.475 64.1669 317.107 63.4946 317.538C62.8269 317.964 62.0788 318.178 61.2502 318.178C60.6631 318.178 60.1636 318.08 59.7517 317.886C59.3445 317.692 59.0107 317.448 58.7502 317.155C58.4898 316.857 58.291 316.556 58.1536 316.253H58.0613V322.091H55.0357ZM57.9974 312.545C57.9974 313.194 58.0874 313.76 58.2673 314.243C58.4472 314.726 58.7076 315.102 59.0485 315.372C59.3894 315.637 59.8037 315.77 60.2914 315.77C60.7839 315.77 61.2005 315.635 61.5414 315.365C61.8823 315.09 62.1404 314.712 62.3156 314.229C62.4955 313.741 62.5855 313.18 62.5855 312.545C62.5855 311.916 62.4979 311.362 62.3227 310.884C62.1475 310.405 61.8894 310.031 61.5485 309.761C61.2076 309.491 60.7886 309.357 60.2914 309.357C59.799 309.357 59.3823 309.487 59.0414 309.747C58.7053 310.008 58.4472 310.377 58.2673 310.855C58.0874 311.333 57.9974 311.897 57.9974 312.545ZM72.181 318.213C71.0778 318.213 70.1237 317.979 69.3188 317.51C68.5186 317.036 67.9007 316.378 67.4651 315.536C67.0295 314.688 66.8117 313.705 66.8117 312.588C66.8117 311.461 67.0295 310.476 67.4651 309.634C67.9007 308.786 68.5186 308.128 69.3188 307.659C70.1237 307.186 71.0778 306.949 72.181 306.949C73.2842 306.949 74.2359 307.186 75.0361 307.659C75.841 308.128 76.4613 308.786 76.8969 309.634C77.3325 310.476 77.5503 311.461 77.5503 312.588C77.5503 313.705 77.3325 314.688 76.8969 315.536C76.4613 316.378 75.841 317.036 75.0361 317.51C74.2359 317.979 73.2842 318.213 72.181 318.213ZM72.1952 315.869C72.6971 315.869 73.1161 315.727 73.4523 315.443C73.7885 315.154 74.0418 314.761 74.2122 314.264C74.3874 313.767 74.475 313.201 74.475 312.567C74.475 311.932 74.3874 311.366 74.2122 310.869C74.0418 310.372 73.7885 309.979 73.4523 309.69C73.1161 309.402 72.6971 309.257 72.1952 309.257C71.6885 309.257 71.2624 309.402 70.9168 309.69C70.5759 309.979 70.3178 310.372 70.1426 310.869C69.9722 311.366 69.8869 311.932 69.8869 312.567C69.8869 313.201 69.9722 313.767 70.1426 314.264C70.3178 314.761 70.5759 315.154 70.9168 315.443C71.2624 315.727 71.6885 315.869 72.1952 315.869ZM79.0776 318V307.091H82.0109V308.994H82.1245C82.3234 308.317 82.6572 307.806 83.1259 307.46C83.5947 307.11 84.1344 306.935 84.7452 306.935C84.8968 306.935 85.0601 306.944 85.2353 306.963C85.4105 306.982 85.5644 307.008 85.6969 307.041V309.726C85.5549 309.683 85.3584 309.645 85.1075 309.612C84.8565 309.579 84.6269 309.562 84.4185 309.562C83.9735 309.562 83.5757 309.66 83.2253 309.854C82.8797 310.043 82.6051 310.308 82.4015 310.649C82.2026 310.99 82.1032 311.383 82.1032 311.828V318H79.0776ZM93.1706 307.091V309.364H86.601V307.091H93.1706ZM88.0925 304.477H91.1181V314.648C91.1181 314.927 91.1607 315.145 91.2459 315.301C91.3312 315.453 91.4495 315.559 91.601 315.621C91.7573 315.682 91.9372 315.713 92.1408 315.713C92.2829 315.713 92.4249 315.701 92.567 315.678C92.709 315.649 92.8179 315.628 92.8937 315.614L93.3695 317.865C93.218 317.912 93.0049 317.967 92.7303 318.028C92.4557 318.095 92.1219 318.135 91.7289 318.149C90.9997 318.178 90.3605 318.08 89.8113 317.858C89.2668 317.635 88.843 317.29 88.54 316.821C88.2369 316.352 88.0878 315.76 88.0925 315.045V304.477ZM101.697 313.355V307.091H104.723V318H101.818V316.018H101.704C101.458 316.658 101.049 317.171 100.476 317.56C99.9075 317.948 99.2138 318.142 98.3947 318.142C97.6655 318.142 97.024 317.976 96.47 317.645C95.916 317.313 95.4828 316.842 95.1703 316.232C94.8625 315.621 94.7063 314.889 94.7015 314.037V307.091H97.7271V313.497C97.7318 314.141 97.9047 314.65 98.2456 315.024C98.5865 315.398 99.0434 315.585 99.6163 315.585C99.9809 315.585 100.322 315.502 100.639 315.337C100.956 315.166 101.212 314.915 101.406 314.584C101.605 314.252 101.702 313.843 101.697 313.355ZM109.728 311.693V318H106.703V307.091H109.586V309.016H109.714C109.956 308.381 110.361 307.879 110.929 307.51C111.497 307.136 112.186 306.949 112.996 306.949C113.753 306.949 114.414 307.115 114.977 307.446C115.541 307.777 115.978 308.251 116.291 308.866C116.603 309.477 116.76 310.206 116.76 311.054V318H113.734V311.594C113.739 310.926 113.568 310.405 113.223 310.031C112.877 309.652 112.401 309.463 111.795 309.463C111.388 309.463 111.028 309.551 110.716 309.726C110.408 309.901 110.166 310.157 109.991 310.493C109.821 310.824 109.733 311.224 109.728 311.693ZM118.704 318V307.091H121.73V318H118.704ZM120.224 305.685C119.774 305.685 119.389 305.536 119.067 305.237C118.749 304.934 118.591 304.572 118.591 304.151C118.591 303.734 118.749 303.376 119.067 303.078C119.389 302.775 119.774 302.624 120.224 302.624C120.674 302.624 121.058 302.775 121.375 303.078C121.697 303.376 121.858 303.734 121.858 304.151C121.858 304.572 121.697 304.934 121.375 305.237C121.058 305.536 120.674 305.685 120.224 305.685ZM129.516 307.091V309.364H122.947V307.091H129.516ZM124.438 304.477H127.464V314.648C127.464 314.927 127.506 315.145 127.591 315.301C127.677 315.453 127.795 315.559 127.947 315.621C128.103 315.682 128.283 315.713 128.486 315.713C128.628 315.713 128.77 315.701 128.912 315.678C129.054 315.649 129.163 315.628 129.239 315.614L129.715 317.865C129.563 317.912 129.35 317.967 129.076 318.028C128.801 318.095 128.467 318.135 128.074 318.149C127.345 318.178 126.706 318.08 126.157 317.858C125.612 317.635 125.188 317.29 124.885 316.821C124.582 316.352 124.433 315.76 124.438 315.045V304.477ZM131.047 318V307.091H134.073V318H131.047ZM132.567 305.685C132.117 305.685 131.731 305.536 131.409 305.237C131.092 304.934 130.933 304.572 130.933 304.151C130.933 303.734 131.092 303.376 131.409 303.078C131.731 302.775 132.117 302.624 132.567 302.624C133.017 302.624 133.4 302.775 133.717 303.078C134.039 303.376 134.2 303.734 134.2 304.151C134.2 304.572 134.039 304.934 133.717 305.237C133.4 305.536 133.017 305.685 132.567 305.685ZM141.028 318.213C139.906 318.213 138.94 317.986 138.13 317.531C137.325 317.072 136.705 316.423 136.269 315.585C135.834 314.742 135.616 313.746 135.616 312.595C135.616 311.473 135.834 310.488 136.269 309.641C136.705 308.793 137.318 308.133 138.109 307.659C138.904 307.186 139.837 306.949 140.907 306.949C141.627 306.949 142.297 307.065 142.917 307.297C143.542 307.524 144.087 307.867 144.551 308.327C145.019 308.786 145.384 309.364 145.644 310.06C145.905 310.751 146.035 311.561 146.035 312.489V313.32H136.823V311.445H143.187C143.187 311.009 143.092 310.623 142.903 310.287C142.713 309.951 142.451 309.688 142.114 309.499C141.783 309.304 141.397 309.207 140.957 309.207C140.498 309.207 140.09 309.314 139.735 309.527C139.385 309.735 139.11 310.017 138.911 310.372C138.712 310.723 138.611 311.113 138.606 311.544V313.327C138.606 313.866 138.705 314.333 138.904 314.726C139.108 315.119 139.394 315.422 139.764 315.635C140.133 315.848 140.571 315.955 141.078 315.955C141.414 315.955 141.721 315.907 142.001 315.812C142.28 315.718 142.519 315.576 142.718 315.386C142.917 315.197 143.069 314.965 143.173 314.69L145.971 314.875C145.829 315.547 145.538 316.134 145.097 316.636C144.662 317.134 144.098 317.522 143.407 317.801C142.721 318.076 141.927 318.213 141.028 318.213ZM156.646 310.202L153.876 310.372C153.829 310.135 153.727 309.922 153.571 309.733C153.415 309.539 153.209 309.385 152.953 309.271C152.702 309.153 152.401 309.094 152.051 309.094C151.582 309.094 151.187 309.193 150.865 309.392C150.543 309.586 150.382 309.847 150.382 310.173C150.382 310.434 150.486 310.654 150.694 310.834C150.903 311.014 151.26 311.158 151.767 311.267L153.741 311.665C154.802 311.883 155.593 312.233 156.113 312.716C156.634 313.199 156.895 313.833 156.895 314.619C156.895 315.334 156.684 315.962 156.263 316.501C155.846 317.041 155.273 317.463 154.544 317.766C153.819 318.064 152.984 318.213 152.037 318.213C150.593 318.213 149.442 317.912 148.585 317.311C147.733 316.705 147.233 315.881 147.086 314.839L150.062 314.683C150.152 315.124 150.37 315.46 150.716 315.692C151.061 315.919 151.504 316.033 152.044 316.033C152.574 316.033 153 315.931 153.322 315.727C153.649 315.519 153.815 315.251 153.819 314.925C153.815 314.65 153.699 314.425 153.471 314.25C153.244 314.07 152.894 313.933 152.42 313.838L150.531 313.462C149.466 313.249 148.673 312.879 148.152 312.354C147.636 311.828 147.378 311.158 147.378 310.344C147.378 309.643 147.567 309.039 147.946 308.533C148.329 308.026 148.867 307.635 149.558 307.361C150.254 307.086 151.068 306.949 152.001 306.949C153.379 306.949 154.463 307.24 155.254 307.822C156.049 308.405 156.513 309.198 156.646 310.202Z" fill="white"/>
<defs>
<linearGradient id="paint0_linear_15_659" x1="484.411" y1="267.887" x2="187.858" y2="601.322" gradientUnits="userSpaceOnUse">
<stop stop-color="#EDB917"/>
<stop offset="1" stop-color="#FFDC78"/>
</linearGradient>
<linearGradient id="paint1_linear_15_659" x1="139.986" y1="-10.5971" x2="154.657" y2="371.293" gradientUnits="userSpaceOnUse">
<stop stop-color="#127682"/>
<stop offset="1" stop-color="#20C7AB"/>
</linearGradient>
<linearGradient id="paint2_linear_15_659" x1="254.805" y1="373.022" x2="14.3657" y2="356.926" gradientUnits="userSpaceOnUse">
<stop stop-color="#388CBA"/>
<stop offset="1" stop-color="#205392"/>
</linearGradient>
</defs>
</svg>
