<svg width="50" height="50" viewBox="0 0 50 50" fill="none" xmlns="http://www.w3.org/2000/svg">
<path fill-rule="evenodd" clip-rule="evenodd" d="M16.1851 18.1538H33.8151C38.7264 18.1538 42.7084 22.048 42.7084 26.851V37.1361C42.7084 41.9391 38.7264 45.8333 33.8151 45.8333H16.1851C11.2737 45.8333 7.29175 41.9391 7.29175 37.1361V26.851C7.29175 22.048 11.2737 18.1538 16.1851 18.1538ZM24.9895 36.1031C26.0268 36.1031 26.8524 35.2956 26.8524 34.2812V29.6852C26.8524 28.6915 26.0268 27.8841 24.9895 27.8841C23.9734 27.8841 23.1477 28.6915 23.1477 29.6852V34.2812C23.1477 35.2956 23.9734 36.1031 24.9895 36.1031Z" fill="#7B61FF"/>
<path opacity="0.4" d="M36.5059 15.4082V18.4722C35.765 18.2652 34.9817 18.1616 34.1773 18.1616H32.8013V15.4082C32.8013 11.2055 29.3083 7.7896 25.0109 7.7896C20.7134 7.7896 17.2205 11.1848 17.1993 15.3668V18.1616H15.8444C15.0188 18.1616 14.2356 18.2652 13.4946 18.4929V15.4082C13.5158 9.19738 18.66 4.16663 24.9685 4.16663C31.3617 4.16663 36.5059 9.19738 36.5059 15.4082Z" fill="#7B61FF"/>
</svg>
