<svg width="102" height="124" viewBox="0 0 102 124" fill="none" xmlns="http://www.w3.org/2000/svg">
<path d="M58.702 72.0776L18.8876 13.4199L14.1391 6.4301L10.5099 1.04956L6.12671 4.28034L7.16361 5.84045V5.85274L13.1964 14.7466L18.051 21.8961L57.3705 79.8291L61.7538 76.586L58.702 72.0776Z" fill="#202A4C"/>
<path d="M79.4523 48.7252C79.4657 43.1056 78.1483 37.5694 75.6169 32.608C73.0856 27.6467 69.4186 23.4135 64.9413 20.2843C60.4641 17.155 55.3152 15.2265 49.9515 14.6698C44.5878 14.1131 39.1752 14.9454 34.1941 17.093L71.0982 71.5003C76.4849 65.2446 79.4607 57.1319 79.4523 48.7252Z" fill="#205EFF"/>
<path d="M85.9681 74.8906L85.4143 75.7873L85.9681 74.8906Z" fill="#202A4C"/>
<path d="M82.8219 79.4359L82.5391 79.8045L82.8219 79.4359Z" fill="#202A4C"/>
<path d="M84.3771 77.3226L84.0354 77.814L84.3771 77.3226Z" fill="#202A4C"/>
<path d="M87.6412 71.9423C87.3349 72.532 87.0167 73.1216 86.6868 73.7113C87.0167 73.1216 87.3349 72.532 87.6412 71.9423Z" fill="#202A4C"/>
<path d="M74.291 76.5614C75.0923 75.7015 75.8464 74.817 76.5533 73.8957C75.8346 74.817 75.0687 75.7015 74.291 76.5614Z" fill="#202A4C"/>
<path d="M81.2317 81.3275L80.9253 81.6838L81.2317 81.3275Z" fill="#202A4C"/>
<path d="M79.5818 69.3995C79.841 68.9572 80.0884 68.515 80.3241 68.0605C80.0884 68.515 79.841 68.9572 79.5818 69.3995Z" fill="#202A4C"/>
<path d="M77.0718 73.2076C77.6138 72.4706 78.1322 71.7335 78.6153 70.9719C78.1322 71.7335 77.6138 72.4828 77.0718 73.2076Z" fill="#202A4C"/>
<path d="M79.5704 83.1827L79.1934 83.5758L79.5704 83.1827Z" fill="#202A4C"/>
<path d="M74.2944 76.5612L74.1143 76.7454L74.2944 76.5612Z" fill="#00CDC0"/>
<path d="M80.3242 68.0604C80.772 67.2128 81.1961 66.3652 81.585 65.4807C81.2079 66.3529 80.772 67.2128 80.3242 68.0604Z" fill="#00CDC0"/>
<path d="M78.6042 70.9719C78.946 70.456 79.2641 69.9277 79.5705 69.3995C79.2759 69.9277 78.9577 70.456 78.6042 70.9719Z" fill="#00CDC0"/>
<path d="M76.554 73.9572C76.7307 73.7361 76.9075 73.5027 77.0724 73.2693C76.9075 73.4413 76.7307 73.6624 76.554 73.9572Z" fill="#00CDC0"/>
<path d="M82.5393 79.8044C82.1151 80.3327 81.6792 80.8486 81.2314 81.3645C81.6792 80.8486 82.1387 80.3327 82.5393 79.8044Z" fill="#00CDC0"/>
<path d="M85.4145 75.7871C85.0846 76.3031 84.7312 76.819 84.3777 77.3227C84.7312 76.819 85.0846 76.3031 85.4145 75.7871Z" fill="#00CDC0"/>
<path d="M84.0357 77.8144C83.6468 78.3672 83.2345 78.9077 82.8574 79.4359C83.2345 78.8708 83.6468 78.3672 84.0357 77.8144Z" fill="#00CDC0"/>
<path d="M87.8431 71.5736C87.8431 71.6965 87.7124 71.8193 87.6411 71.9421C87.7124 71.8193 87.7837 71.6965 87.8431 71.5736Z" fill="#00CDC0"/>
<path d="M80.9607 81.7207C80.513 82.2121 80.0652 82.7034 79.6057 83.1825C80.0299 82.7034 80.4894 82.2121 80.9607 81.7207Z" fill="#00CDC0"/>
<path d="M86.687 73.7113C86.4514 74.1044 86.2157 74.4975 85.9683 74.9397C86.2157 74.4975 86.4514 74.1044 86.687 73.7113Z" fill="#00CDC0"/>
<path d="M78.6041 84.2022C78.8162 84.0056 79.0047 83.7845 79.2168 83.5757C78.7298 84.0671 78.2349 84.5462 77.7322 85.013C78.0032 84.7427 78.2977 84.4847 78.6041 84.2022Z" fill="#00CDC0"/>
<path d="M77.5787 85.1359L77.7083 85.013C78.211 84.5462 78.7059 84.0671 79.1929 83.5757L79.57 83.1827C80.0295 82.7036 80.4773 82.2122 80.925 81.7208L81.2314 81.3646C81.6791 80.8486 82.1151 80.3327 82.5393 79.8045L82.822 79.4359C83.2345 78.9077 83.6469 78.3672 84.0003 77.8144L84.3421 77.323C84.6955 76.8194 85.049 76.3034 85.379 75.7875L85.9328 74.8907C86.1802 74.4976 86.4158 74.1045 86.6515 73.6623C86.9814 73.0727 87.2996 72.483 87.6059 71.8934C87.6766 71.7705 87.7473 71.6477 87.8062 71.5248C88.2068 70.7509 88.5721 69.9524 88.9845 69.1662C89.232 68.6257 89.4559 68.0729 89.6679 67.5201C89.7622 67.299 89.8564 67.1025 89.9389 66.8813C93.4838 57.7511 94.2859 47.7139 92.2392 38.098C90.1925 28.4821 85.3934 19.7407 78.477 13.0307C71.5606 6.32063 62.853 1.95822 53.5064 0.520739C44.1597 -0.916746 34.6148 0.638465 26.1345 4.98054L30.9419 12.0563C38.0867 8.71456 46.0398 7.72627 53.7378 9.22359C61.4358 10.7209 68.512 14.6324 74.0204 20.4353C79.5287 26.2382 83.2067 33.6558 84.5627 41.6966C85.9187 49.7374 84.888 58.0181 81.6084 65.4318C81.2196 66.3163 80.7954 67.1639 80.3477 68.0115C80.112 68.466 79.8646 68.9083 79.6053 69.3505C79.3461 69.7927 78.9808 70.4069 78.6391 70.9229C78.156 71.6845 77.6376 72.4216 77.0956 73.1586C76.9306 73.3921 76.7539 73.6255 76.5771 73.8466C75.8702 74.7679 75.116 75.6523 74.3148 76.5123L74.1381 76.6965C73.7139 77.1511 73.2779 77.6056 72.8184 78.0355L46.7899 39.6838L42.4067 42.9146L68.6708 81.6225L73.384 88.6123L96.7023 123.008L101.097 119.765L77.5787 85.1359Z" fill="#202A4C"/>
<path d="M50.1834 97.2974H50.8432C52.4252 97.1523 53.9985 96.9185 55.5564 96.5972L56.0041 96.5111L57.5005 96.1672L57.9718 96.0444C58.8673 95.811 59.7629 95.5407 60.6466 95.2582L61.165 95.0862L62.3433 94.6439L63.2152 94.3123L64.311 93.8578L65.4186 93.3664L66.1728 93.0224C67.8114 92.2395 69.4047 91.3576 70.9448 90.3813L66.2317 83.3669C64.6665 84.3323 63.0361 85.1781 61.3535 85.8975C56.495 87.9928 51.2776 89.0332 46.0203 88.955C40.763 88.8769 35.5762 87.6818 30.7769 85.443L30.4117 85.271C29.6458 84.9025 28.8799 84.4971 28.1258 84.0425L27.5955 83.7232C27.03 83.3915 26.4762 83.0475 25.9224 82.679L25.2154 82.1999C24.5909 81.7577 23.9664 81.3031 23.3655 80.8241L22.5996 80.1975C22.1047 79.7799 21.6098 79.3499 21.1267 78.8954C20.8675 78.6743 20.6319 78.4409 20.3844 78.2075C19.8895 77.7161 19.3946 77.2125 18.9116 76.6965C18.6759 76.4263 18.4167 76.1683 18.181 75.898L17.9925 75.6769C17.639 75.2715 17.2973 74.8539 16.9674 74.4485L16.7906 74.2274C16.4607 73.8097 16.1426 73.3798 15.8244 72.9989L15.6477 72.741C15.3531 72.3233 15.0585 71.8934 14.7758 71.5125L14.5519 71.1563C14.2927 70.7632 14.057 70.3701 13.8096 69.9279L13.5032 69.3873L12.9494 68.38L12.5252 67.5693L12.1717 66.8322C11.9832 66.4637 11.8065 66.0829 11.6415 65.702C11.5937 65.5719 11.5386 65.4447 11.4765 65.3212C9.38369 60.4077 8.25397 55.1076 8.15378 49.7324C8.15378 49.4499 8.15378 49.1796 8.15378 48.8971C8.15357 38.9746 11.6942 29.4069 18.0868 22.0558L13.244 14.9186C4.94264 23.7754 0.204355 35.6066 0 47.988C0 48.1477 0 48.2951 0 48.4548C0 48.6145 0 48.7497 0 48.8971C0 49.0445 0 49.327 0 49.5358C0 49.9904 0 50.4326 0 50.8749C0 51.3171 0 51.6119 0 51.9682C0 52.3244 0.0589166 52.8158 0.0942653 53.1966L0.200325 54.339C0.200325 54.7321 0.294576 55.1375 0.35349 55.5675C0.412405 55.9974 0.459536 56.3537 0.51845 56.7959C0.577365 57.2381 0.64806 57.5698 0.718757 57.9506C0.789455 58.3314 0.848379 58.7368 0.930859 59.1176C1.01334 59.4984 1.1076 59.9161 1.19008 60.3461C1.27256 60.776 1.35505 61.0709 1.44931 61.4271C1.54357 61.7833 1.68497 62.2993 1.8028 62.7292C1.92063 63.1592 1.97954 63.3557 2.0738 63.6628C2.2152 64.1665 2.39194 64.6579 2.5569 65.1615C2.63938 65.3949 2.71007 65.616 2.78076 65.8494C2.99286 66.4391 3.21674 67.0779 3.4524 67.6061C3.4524 67.729 3.54667 67.8641 3.60558 67.9869C3.87659 68.6626 4.15937 69.3259 4.46573 69.9893V70.0998C5.48119 72.1219 6.63085 74.0676 7.90633 75.9226C8.28338 76.5123 8.684 77.151 9.08462 77.6793L9.22601 77.8758C9.59128 78.3918 9.98011 78.8954 10.4043 79.3991L10.6989 79.7676C11.0524 80.2221 11.4294 80.6644 11.8065 81.1066L12.2189 81.5857L12.5959 82.0279L13.6092 83.109C17.3108 86.9757 21.6134 90.1614 26.3348 92.531L26.5233 92.6293C27.0653 92.8996 27.6191 93.1575 28.1847 93.4155L28.7974 93.6858L30.0582 94.2017L30.8594 94.5088L31.9317 94.8896C32.6269 95.123 33.3338 95.3564 34.0526 95.5653L34.5592 95.7127L35.9025 96.0566L36.4916 96.1918L37.882 96.4989L38.3533 96.5849C39.8859 96.8712 41.4315 97.0762 42.984 97.1991H43.5496L44.9282 97.2605H45.5645H46.6131C47.1787 97.2605 47.7207 97.2605 48.2745 97.2605H48.7576L50.1834 97.2974Z" fill="#00CDC0"/>
</svg>
