<svg width="20" height="20" viewBox="0 0 20 20" fill="none" xmlns="http://www.w3.org/2000/svg">
<path fill-rule="evenodd" clip-rule="evenodd" d="M3.0893 9.31429C2.7565 9.36011 2.5 9.64961 2.5 9.99991C2.5 10.3821 2.80526 10.6918 3.18182 10.6918H15.1666L10.8372 15.0678L10.7711 15.1453C10.5725 15.4157 10.5937 15.8002 10.8352 16.0463C11.101 16.3171 11.5327 16.318 11.7995 16.0483L17.2897 10.4997C17.3225 10.4679 17.3521 10.4328 17.378 10.395C17.5639 10.1248 17.5377 9.74993 17.2994 9.50922L11.7994 3.95161L11.7228 3.88478C11.4555 3.68438 11.0767 3.70754 10.8352 3.95372C10.5695 4.22452 10.5704 4.66262 10.8373 4.93226L15.1677 9.30797H3.18182L3.0893 9.31429Z" fill="#F4F6FA"/>
</svg>
