<svg width="50" height="50" viewBox="0 0 50 50" fill="none" xmlns="http://www.w3.org/2000/svg">
<path opacity="0.4" d="M25.1803 45.8333C24.9223 45.8333 24.6643 45.774 24.4315 45.6535L16.9292 41.77C14.8004 40.6668 13.1351 39.4288 11.8347 37.9865C8.9886 34.8323 7.40509 30.7833 7.37992 26.5831L7.29183 12.7588C7.28134 11.1633 8.31115 9.73127 9.85062 9.19195L23.6261 4.3891C24.4441 4.09697 25.3565 4.09288 26.1891 4.3748L40.0171 9.01421C41.5649 9.53107 42.6115 10.9529 42.6199 12.5464L42.708 26.3809C42.7352 30.5749 41.2063 34.6403 38.4042 37.8292C37.1185 39.2919 35.4679 40.5483 33.36 41.6719L25.9248 45.6433C25.6941 45.7679 25.4383 45.8312 25.1803 45.8333Z" fill="#F7AE28"/>
<path d="M23.5817 29.8352C23.179 29.8373 22.7763 29.6922 22.4659 29.394L18.4725 25.5533C17.8559 24.9568 17.8496 23.9885 18.4599 23.3879C19.0703 22.7852 20.0665 22.7791 20.6853 23.3736L23.5586 26.1356L30.5743 19.2183C31.1868 18.6157 32.183 18.6095 32.7997 19.204C33.4184 19.8005 33.4247 20.7709 32.8143 21.3695L24.6912 29.3797C24.385 29.682 23.9844 29.8332 23.5817 29.8352Z" fill="#F7AE28"/>
</svg>
