<svg width="50" height="50" viewBox="0 0 50 50" fill="none" xmlns="http://www.w3.org/2000/svg">
<path opacity="0.4" d="M45.8329 24.9998C45.8329 36.5082 36.5058 45.8332 24.9996 45.8332C13.4933 45.8332 4.16626 36.5082 4.16626 24.9998C4.16626 13.4957 13.4933 4.1665 24.9996 4.1665C36.5058 4.1665 45.8329 13.4957 45.8329 24.9998Z" fill="#388CBA"/>
<path d="M32.4448 32.9467C32.1719 32.9467 31.8969 32.8759 31.6448 32.728L23.4656 27.8488C22.9948 27.5655 22.7052 27.0551 22.7052 26.5051V15.9905C22.7052 15.128 23.4052 14.428 24.2677 14.428C25.1302 14.428 25.8302 15.128 25.8302 15.9905V25.6176L33.2469 30.0405C33.9864 30.4842 34.2302 31.4426 33.7885 32.1842C33.4948 32.6738 32.976 32.9467 32.4448 32.9467Z" fill="#388CBA"/>
</svg>
